<svg xmlns="http://www.w3.org/2000/svg" viewBox="0 0 210.5 49.43"><g transform="translate(-250 -10)"><path d="M-124.207-42.244a6.848,6.848,0,0,1,2.026-.9,7.508,7.508,0,0,1,1.9-.325h.926v.25a6.6,6.6,0,0,0-2.2.463,6.551,6.551,0,0,0-1.689.951,7.037,7.037,0,0,0-1.288,1.426,15.665,15.665,0,0,0-.963,1.513q-.338.625-.788,1.6l-6.954,15.209a9.155,9.155,0,0,0-.926,2.577h-.225l-7.029-16.035a2.573,2.573,0,0,0-.963-1.188,2.3,2.3,0,0,0-1.238-.388h-.2v-.25h5.628v.25h-.225a.974.974,0,0,0-1,.7,1.109,1.109,0,0,0-.05.35,1.361,1.361,0,0,0,.125.5l5.228,13.108,6.2-14.834A10.937,10.937,0,0,1-124.207-42.244Zm13.858,22.164h.2v.25h-5.628v-.25h.225a.937.937,0,0,0,.788-.338,1.06,1.06,0,0,0,.263-.638,1.889,1.889,0,0,0-.1-.6l-1.6-4.253h-6.754l-1.676,4.278a1.853,1.853,0,0,0-.1.588,1.049,1.049,0,0,0,.263.625.936.936,0,0,0,.788.338h.225v.25h-5.028v-.25h.225a2.187,2.187,0,0,0,1.226-.4,2.872,2.872,0,0,0,.976-1.176l5.653-13.458a9.155,9.155,0,0,0,.926-2.577h.225l6.7,16.035a2.7,2.7,0,0,0,.951,1.176A2.223,2.223,0,0,0-110.348-20.081Zm-12.308-6.579h6.154l-3-8.03Zm14.034,6.579a1.518,1.518,0,0,0,1.113-.463,1.61,1.61,0,0,0,.488-1.113V-35.515a1.61,1.61,0,0,0-.488-1.113,1.518,1.518,0,0,0-1.113-.463h-.325v-.25h5.478v.25h-.325a1.521,1.521,0,0,0-1.376.775,1.53,1.53,0,0,0-.225.8v14.909h3.577a4.266,4.266,0,0,0,2.827-.826,6.113,6.113,0,0,0,1.626-2.452h.25l-1.451,4.052h-10.381v-.25Zm21.838-17.261a8.931,8.931,0,0,1,6.491,2.414A8.434,8.434,0,0,1-77.8-28.586a8.434,8.434,0,0,1-2.489,6.341,8.931,8.931,0,0,1-6.491,2.414h-8.48v-.25h.325a1.518,1.518,0,0,0,1.113-.463,1.61,1.61,0,0,0,.488-1.113V-35.665a1.278,1.278,0,0,0-.488-1.013,1.675,1.675,0,0,0-1.113-.413h-.3l-.025-.25Zm-4.928.75v16.01h4.928a6.9,6.9,0,0,0,3.715-1,6.683,6.683,0,0,0,2.5-2.814,9.415,9.415,0,0,0,.888-4.19,8.392,8.392,0,0,0-1.964-5.8,6.561,6.561,0,0,0-5.141-2.2Zm16.46,16.51a1.518,1.518,0,0,0,1.113-.463,1.61,1.61,0,0,0,.488-1.113V-35.54a1.566,1.566,0,0,0-.488-1.1,1.539,1.539,0,0,0-1.113-.45h-.325v-.25H-70.1v.25h-.325a1.539,1.539,0,0,0-1.113.45,1.566,1.566,0,0,0-.488,1.1v13.884a1.5,1.5,0,0,0,.475,1.113,1.559,1.559,0,0,0,1.126.463h.325v.25h-5.478v-.25Zm8.155-.775a7.791,7.791,0,0,1-.075-1.351,6.733,6.733,0,0,1,.375-2.126h.225q-.025.275-.025.55a3.621,3.621,0,0,0,.926,2.539,3.161,3.161,0,0,0,2.452,1.013,3.633,3.633,0,0,0,2.589-.951,3.138,3.138,0,0,0,1.013-2.389,3.037,3.037,0,0,0-.976-2.339l-4.8-4.453a3.975,3.975,0,0,1-1.351-3.027,4.278,4.278,0,0,1,1.188-3.039,4.2,4.2,0,0,1,3.214-1.263,10.665,10.665,0,0,1,2.151.25h.976v3.077h-.225a2.351,2.351,0,0,0-.813-1.876,3.086,3.086,0,0,0-2.089-.7,2.927,2.927,0,0,0-2.139.851,2.863,2.863,0,0,0-.863,2.126,2.9,2.9,0,0,0,1,2.2l4.928,4.553a4.071,4.071,0,0,1,1.251,3.152,4.478,4.478,0,0,1-1.276,3.29,4.573,4.573,0,0,1-3.4,1.288,8.9,8.9,0,0,1-2.339-.338A4.088,4.088,0,0,1-67.1-20.856Zm24.065.775a1.518,1.518,0,0,0,1.113-.463,1.584,1.584,0,0,0,.488-1.088v-6.479H-51.663v6.479a1.458,1.458,0,0,0,.475,1.1,1.582,1.582,0,0,0,1.126.45h.325v.25h-5.478v-.25h.325a1.539,1.539,0,0,0,1.113-.45,1.566,1.566,0,0,0,.488-1.1V-35.54a1.566,1.566,0,0,0-.488-1.1,1.539,1.539,0,0,0-1.113-.45h-.325v-.25h5.478v.25h-.325a1.539,1.539,0,0,0-1.113.45,1.566,1.566,0,0,0-.488,1.1v6.679h10.231V-35.54a1.518,1.518,0,0,0-.8-1.351,1.676,1.676,0,0,0-.8-.2h-.325v-.25h5.478v.25H-38.2a1.518,1.518,0,0,0-1.113.463,1.61,1.61,0,0,0-.488,1.113v13.884a1.566,1.566,0,0,0,.488,1.1,1.539,1.539,0,0,0,1.113.45h.325v.25h-5.478v-.25Zm19.162.725q5.328,1.851,7.992,2.514a19.413,19.413,0,0,0,4.578.663,11.953,11.953,0,0,0,4.215-.876l.125.2a10.773,10.773,0,0,1-6.154,2.1,16.837,16.837,0,0,1-7.229-1.976Q-23.47-18.28-24.221-18.6a11.8,11.8,0,0,0-4.4-1.226v-.25h.325a1.539,1.539,0,0,0,1.113-.45,1.593,1.593,0,0,0,.488-1.126V-35.515a1.61,1.61,0,0,0-.488-1.113,1.518,1.518,0,0,0-1.113-.463h-.325v-.25h5.478v.25h-.325a1.559,1.559,0,0,0-1.126.463,1.5,1.5,0,0,0-.475,1.113v14.434a3.567,3.567,0,0,0,.05.688,1.23,1.23,0,0,0,.325.538A2.052,2.052,0,0,0-23.87-19.355Zm21.688-.725h.2v.25H-7.611v-.25h.225a.936.936,0,0,0,.788-.338,1.06,1.06,0,0,0,.263-.638,1.889,1.889,0,0,0-.1-.6l-1.6-4.253H-14.79l-1.676,4.278a1.853,1.853,0,0,0-.1.588,1.049,1.049,0,0,0,.263.625.936.936,0,0,0,.788.338h.225v.25h-5.028v-.25h.225a2.187,2.187,0,0,0,1.226-.4,2.872,2.872,0,0,0,.976-1.176l5.653-13.458a9.155,9.155,0,0,0,.926-2.577h.225l6.7,16.035a2.7,2.7,0,0,0,.951,1.176A2.223,2.223,0,0,0-2.182-20.081ZM-14.49-26.66h6.154l-3-8.03ZM5.322-19.831h-6.1l.025-.25h.3a1.539,1.539,0,0,0,1.113-.45,1.566,1.566,0,0,0,.488-1.1V-35.54a1.566,1.566,0,0,0-.488-1.1,1.539,1.539,0,0,0-1.113-.45h-.3l-.025-.25H4.2a6.265,6.265,0,0,1,4,1.138,3.691,3.691,0,0,1,1.426,3.039,3.826,3.826,0,0,1-.8,2.489,3.8,3.8,0,0,1-1.951,1.313A4.967,4.967,0,0,1,10-27.735a4.912,4.912,0,0,1,1.151,3.34,4.078,4.078,0,0,1-1.538,3.29A6.533,6.533,0,0,1,5.322-19.831Zm-2.552-.926h2.5a4.048,4.048,0,0,0,2.952-1.026,3.9,3.9,0,0,0,1.051-2.927A4.6,4.6,0,0,0,8.912-26.6,3.613,3.613,0,0,0,8-27.885a6.709,6.709,0,0,0-4.353-1.2H3.621v-.225q3.3,0,3.977-2.452a4.656,4.656,0,0,0,.15-1.226,3.525,3.525,0,0,0-.938-2.627A3.705,3.705,0,0,0,4.1-36.541H2.771Z" transform="translate(448.849 64.47)" fill="#fff" stroke="rgba(0,0,0,0)" stroke-miterlimit="10" stroke-width="1"/><g transform="translate(281.092 11)"><g transform="translate(-31.092 3.479)"><g transform="translate(14.357 0.499)"><path d="M190.831,201.553l-2.662,1.8,1.18,2.092L179.327,222.8H160.52l-1.859,3.219h22.524l11.881-20.579Z" transform="translate(-157.423 -184.865)" fill="#ff6d00"/><path d="M151.947,89.228H156.9V86.009h-6.811Z" transform="translate(-150.089 -86.009)" fill="#ff6d00"/></g><g transform="translate(14.833 39.047)"><rect width="6.326" height="0.743" transform="translate(0 5.546) rotate(-61.255)" fill="#ff6d00"/></g><g transform="translate(39.647 0)"><rect width="0.743" height="8.385" transform="matrix(0.866, -0.5, 0.5, 0.866, 0, 0.371)" fill="#ff6d00"/></g><path d="M63.494,87.618l-.929-1.609L50.684,106.587l11.881,20.579.929-1.61L52.542,106.587Z" transform="translate(-50.684 -85.509)" fill="#ff6d00"/><path d="M201.66,206.386l-.215-.124-9.987,17.3H175.193l-.143.248h16.409l3.641,6.306.214-.124-3.641-6.306Z" transform="translate(-157.088 -188.394)" fill="#ff6d00"/></g><g transform="translate(-28.786 2.369)"><g transform="translate(27.642)"><rect width="7.376" height="0.743" fill="#fff"/></g><g transform="translate(25.29 8.171)"><path d="M249.479,135.227l-1.757-3.043h-5.975v-.743h6.4l1.971,3.414Z" transform="translate(-241.748 -131.441)" fill="#fff"/></g><g transform="translate(0 3.219)"><g transform="translate(0 22.937)"><rect width="13.139" height="0.743" transform="translate(0 11.519) rotate(-61.246)" fill="#fff"/></g><g transform="translate(5.166 28.258)"><rect width="8.215" height="0.743" transform="matrix(0.481, -0.877, 0.877, 0.481, 0, 7.202)" fill="#fff"/></g><g transform="translate(0.792)"><path d="M73.983,116.121,84.006,98.762l-.929-1.61L72.125,116.121,78.7,127.516l.906-1.651Z" transform="translate(-72.125 -97.152)" fill="#fff"/><path d="M129.179,314.315l-3.35-5.8-.906,1.651,3.326,5.76Z" transform="translate(-117.298 -277.987)" fill="#fff"/></g></g><g transform="translate(11.954 35.299)"><rect width="8.215" height="0.743" transform="translate(0 7.203) rotate(-61.264)" fill="#fff"/></g><path d="M268.186,88.167l-1.246-2.158h-8.048v3.219h6.189l1.246,2.158,1.987,3.442,3-1.189Z" transform="translate(-231.126 -84.399)" fill="#fff"/></g><g transform="translate(-20.243 -1)"><path d="M214.525,296.064c.008.032.016.065.024.1l.683-.184-.017-.059Z" transform="translate(-201.71 -260.622)" fill="#ff6d00" fill-rule="evenodd"/><path d="M150.067,185.815a.126.126,0,0,0-.011-.118c-.108-.133-.215.01-.324.009a.326.326,0,0,0,.007.084C149.853,185.749,149.952,185.928,150.067,185.815Z" transform="translate(-146.275 -166.272)" fill="#ff6d00" fill-rule="evenodd"/><path d="M307.107,256.018c-.148.037-.059.16-.011.247l.121-.043C307.276,256.1,307.242,255.984,307.107,256.018Z" transform="translate(-280.851 -226.48)" fill="#ff6d00" fill-rule="evenodd"/><path d="M307.292,269.669c-.12-.116-.229-.054-.337.022-.09.032-.275-.1-.255.1.015.156.155.077.25.042.041-.015.083-.028.125-.042h0l.3-.051a.314.314,0,0,0,.321-.084C307.545,269.631,307.418,269.5,307.292,269.669Z" transform="translate(-280.57 -238.092)" fill="#ff6d00" fill-rule="evenodd"/><path d="M127.7,268.384c0,.073.052.105.125.087.145-.037.067-.119.041-.19C127.755,268.224,127.7,268.273,127.7,268.384Z" transform="translate(-127.422 -236.956)" fill="#ff6d00" fill-rule="evenodd"/><path d="M305.311,259.193c.186-.01.46.026.459-.207,0-.192-.292,0-.423-.114-.017-.015-.081.025-.123.039l-.128-.072a.164.164,0,0,1-.065.064.259.259,0,0,1-.031.071c-.088.011-.187,0-.2.131l.226.018A.37.37,0,0,0,305.311,259.193Z" transform="translate(-278.948 -228.899)" fill="#ff6d00" fill-rule="evenodd"/><path d="M203.058,300.7h0a.365.365,0,0,0-.347.138c-.218-.1-.4-.1-.522.152-.056.12-.09.243.05.313a.436.436,0,0,0,.564-.084c.02-.022.037-.048.055-.072.445.165.279-.176.3-.362.057-.075.292-.055.17-.207S203.166,300.689,203.058,300.7Z" transform="translate(-191.115 -264.575)" fill="#ff6d00" fill-rule="evenodd"/><path d="M158.444,191.922h0Z" transform="translate(-153.728 -171.645)" fill="#ff6d00" fill-rule="evenodd"/><path d="M156.8,185.879a.136.136,0,0,0-.18-.012c-.087.041-.231,0-.24.146,0,.04.092.126.1.12C156.607,186.068,156.834,186.127,156.8,185.879Z" transform="translate(-151.967 -166.442)" fill="#ff6d00" fill-rule="evenodd"/><path d="M295.489,263.073c-.01-.049-.02-.1-.03-.147a.251.251,0,0,1-.064-.04.125.125,0,0,0-.108-.079c-.129.019-.229.067-.216.221l.358.1Z" transform="translate(-270.622 -232.293)" fill="#ff6d00" fill-rule="evenodd"/><path d="M295.021,264.324l-.01,0,.01.007S295.021,264.326,295.021,264.324Z" transform="translate(-270.572 -233.589)" fill="#ff6d00" fill-rule="evenodd"/><path d="M300.67,255a.266.266,0,0,0,.256.074C300.892,254.866,300.8,254.858,300.67,255Z" transform="translate(-275.413 -225.531)" fill="#ff6d00" fill-rule="evenodd"/><path d="M248.4,66.261c-.016.121.016.208.154.221l.09.027-.021.015c0,.006,0,.017.021.032a.053.053,0,0,0,.065,0l.077-.136a.09.09,0,0,0-.027-.032l0-.007c.149-.227.046-.423-.076-.617a.168.168,0,0,1-.063-.042l.162-.463c-.008-.011-.017-.022-.026-.032a.081.081,0,0,0,.011-.011.269.269,0,0,0,.039-.288l-.014-.008c.152-.093.052-.162-.043-.232l.1-.2-.03-.118a.724.724,0,0,0-.11-.782.049.049,0,0,0-.034-.07c-.023.221-.143.439-.011.662-.189.15-.041.361-.1.536-.015.093-.188.142-.076.271-.146.135-.123.313-.12.486.005.068.01.137.015.2C248.225,65.878,248.494,66.065,248.4,66.261Z" transform="translate(-230.635 -61.789)" fill="#ff6d00" fill-rule="evenodd"/><path d="M194.931,128.128l0-.036.033-.016a3.355,3.355,0,0,0-.113-.791C194.73,127.581,194.613,127.876,194.931,128.128Z" transform="translate(-184.77 -116.345)" fill="#ff6d00" fill-rule="evenodd"/><path d="M207.35,65.524c.147-.133.095-.311.108-.474-.01-.125-.084-.158-.2-.139a.65.65,0,0,0-.063.441C207.186,65.465,207.2,65.554,207.35,65.524Z" transform="translate(-195.434 -62.975)" fill="#ff6d00" fill-rule="evenodd"/><path d="M199.629,106.208a.505.505,0,0,1,.077.019,1.025,1.025,0,0,0-.092-.638c-.022-.094.019-.246-.131-.234-.082.006-.137.117-.065.22A1.089,1.089,0,0,0,199.629,106.208Z" transform="translate(-188.756 -97.582)" fill="#ff6d00" fill-rule="evenodd"/><path d="M202.675,113.14l.06-.146c.078-.165.067-.3-.12-.387l.014-.011-.006,0-.006.009c-.1.058-.057.17-.083.256-.182-.011-.095.13-.117.209a.675.675,0,0,1,.052.055.833.833,0,0,0,.225.608C202.8,113.53,202.7,113.336,202.675,113.14Z" transform="translate(-191.349 -103.776)" fill="#ff6d00" fill-rule="evenodd"/><path d="M204.336,120.467l0,.006.006,0Z" transform="translate(-192.99 -110.512)" fill="#ff6d00" fill-rule="evenodd"/><path d="M313.16,246.119c-.15.006-.312-.018-.389.162l.421-.04a.819.819,0,0,0,.639-.287l-.279.01Z" transform="translate(-285.766 -217.875)" fill="#ff6d00" fill-rule="evenodd"/><path d="M190.292,119.064l.009,0,.006-.007Z" transform="translate(-180.977 -109.308)" fill="#ff6d00" fill-rule="evenodd"/><path d="M203.5,93.866c.17.012.095-.179.112-.286a.442.442,0,0,0-.013-.118,1.718,1.718,0,0,0-.047-1.231.214.214,0,0,0-.128.195.567.567,0,0,0,0,.093c-.094.078.01.223-.05.312,0,.049-.006.1.055.122.06.2-.164.372-.054.576C203.282,93.694,203.325,93.854,203.5,93.866Z" transform="translate(-192.128 -86.355)" fill="#ff6d00" fill-rule="evenodd"/><path d="M225.442,87.206a.347.347,0,0,0,.146.3.22.22,0,0,0,.037.006.322.322,0,0,0,.13.241.318.318,0,0,0-.066.274c.114.072.152.012.163-.094l.125-.227a.3.3,0,0,0-.053-.05l-.108-.034-.063-.149a.162.162,0,0,0,0-.2l-.05-.241c0-.08-.024-.143-.117-.152l-.093.23A.164.164,0,0,0,225.442,87.206Z" transform="translate(-211.05 -81.771)" fill="#ff6d00" fill-rule="evenodd"/><path d="M247.927,90.428c.04.051.073.139.12.147.142.024.072-.112.09-.169a.437.437,0,0,0-.071-.384l-.165-.215c-.051.124-.159.246-.022.381Q247.9,90.308,247.927,90.428Z" transform="translate(-230.189 -84.28)" fill="#ff6d00" fill-rule="evenodd"/><path d="M190.307,119l-.005-.01s-.005.009-.009.014Z" transform="translate(-180.978 -109.247)" fill="#ff6d00" fill-rule="evenodd"/><path d="M251.179,98.617a.225.225,0,0,0,.018.167c.115-.006.306.264.327-.089l-.115-.288C251.253,98.39,251.225,98.513,251.179,98.617Z" transform="translate(-233.063 -91.636)" fill="#ff6d00" fill-rule="evenodd"/><path d="M199.183,117.43c-.1-.005-.189.132-.3.028l-.09.134C199.034,117.806,199.143,117.7,199.183,117.43Z" transform="translate(-188.25 -107.913)" fill="#ff6d00" fill-rule="evenodd"/><path d="M271.5,319.04c-.058-.057-.032-.239-.2-.132.121.122-.06.358.156.461C271.563,319.255,271.471,319.141,271.5,319.04Z" transform="translate(-250.284 -280.263)" fill="#ff6d00" fill-rule="evenodd"/><path d="M208.933,56.12c.011-.106.063-.215-.023-.314-.044-.024-.078-.07-.138-.06a.453.453,0,0,0-.054.381Z" transform="translate(-196.723 -55.137)" fill="#ff6d00" fill-rule="evenodd"/><path d="M272.375,323.846s.069,0,.072,0c.063-.194,0-.364-.182-.62C272.313,323.5,272.342,323.673,272.375,323.846Z" transform="translate(-251.112 -283.982)" fill="#ff6d00" fill-rule="evenodd"/><path d="M208.18,60.916l-.026-.183L208,60.519a.645.645,0,0,0-.035.379C208.036,60.928,208.1,60.973,208.18,60.916Z" transform="translate(-196.087 -59.222)" fill="#ff6d00" fill-rule="evenodd"/><path d="M260.556,151.881c.06-.191.055-.308-.106-.423A.348.348,0,0,0,260.556,151.881Z" transform="translate(-240.978 -137.027)" fill="#ff6d00" fill-rule="evenodd"/><path d="M249.787,84.777c-.048.014-.082.057-.132.068l-.028.209c.033.1.068.193.2.189C249.815,85.087,249.872,84.926,249.787,84.777Z" transform="translate(-231.742 -79.976)" fill="#ff6d00" fill-rule="evenodd"/><path d="M281.2,329.466a.064.064,0,0,0,.089-.025.494.494,0,0,0-.109-.406C281.029,329.217,281.106,329.342,281.2,329.466Z" transform="translate(-258.666 -288.956)" fill="#ff6d00" fill-rule="evenodd"/><path d="M220.148,100.652a.2.2,0,0,0-.163-.025c-.034.073-.206-.05-.171.12.154,0,.069.272.261.224a.325.325,0,0,0,.135-.2.052.052,0,0,1,.061.026.189.189,0,0,0,.118-.215c-.042-.138-.051-.3-.219-.348v0l0,0a.419.419,0,0,0-.008-.654l-.026-.011a1.156,1.156,0,0,0,.082-.138.491.491,0,0,0,.056-.111,3.566,3.566,0,0,0,0-.548.33.33,0,0,0-.121-.267c.144-.12.187-.253.04-.411a.169.169,0,0,0-.074-.234h0a.2.2,0,0,0,.069-.067.524.524,0,0,0-.194-.586.246.246,0,0,0-.247-.033c-.045.212.083.379.148.563a.261.261,0,0,0,.014.407c-.038.122-.112.248.044.345h0a3.747,3.747,0,0,0-.025,1.126q.006.2.012.406c-.163.181-.1.347.033.509a.192.192,0,0,0,.123-.072c.007-.01.013-.02.019-.03l.111.157-.047.092A.236.236,0,0,0,220.148,100.652Z" transform="translate(-206.159 -90.558)" fill="#ff6d00" fill-rule="evenodd"/><path d="M368.907,198.3c.373-.032.373-.032.418-.213l-.4.142Q368.856,198.252,368.907,198.3Z" transform="translate(-333.776 -176.924)" fill="#ff6d00" fill-rule="evenodd"/><path d="M205.926,76.548c.118-.131.087-.287.1-.434.074-.1-.111-.14-.049-.234a.154.154,0,0,0-.075-.036c-.238.1-.067.24-.037.366C205.871,76.322,205.814,76.448,205.926,76.548Z" transform="translate(-194.222 -72.333)" fill="#ff6d00" fill-rule="evenodd"/><path d="M204.333,120.494l0,0v-.005Z" transform="translate(-192.99 -110.533)" fill="#ff6d00" fill-rule="evenodd"/><path d="M339.221,229.683c0,.027.036.06.055.09.077-.063.221-.049.222-.237C339.361,229.516,339.244,229.519,339.221,229.683Z" transform="translate(-308.396 -203.821)" fill="#ff6d00" fill-rule="evenodd"/><path d="M248.325,100.535c.32-.1.138-.251.044-.392.088-.11-.015-.2-.031-.3l.126-.209a.319.319,0,0,0-.183-.28l-.131.271c0,.035,0,.07-.006.1.066.141.082.31.216.416A.343.343,0,0,0,248.325,100.535Z" transform="translate(-230.474 -92.445)" fill="#ff6d00" fill-rule="evenodd"/><path d="M203.12,110.763c-.107-.1-.158,0-.212.076,0,.095.055.135.136.153C203.093,110.923,203.255,110.888,203.12,110.763Z" transform="translate(-191.771 -102.174)" fill="#ff6d00" fill-rule="evenodd"/><path d="M237.79,113.892l.011-.026.028-.188-.158-.454c-.064.146-.011.283-.088.4a.212.212,0,0,0,.052.225C237.714,113.754,237.736,113.887,237.79,113.892Z" transform="translate(-221.425 -104.316)" fill="#ff6d00" fill-rule="evenodd"/><path d="M209.022,52.051c.1-.037.018-.183.13-.213a.722.722,0,0,1,.039-.072c-.042-.1-.082-.2-.2-.228C209.024,51.708,208.858,51.889,209.022,52.051Z" transform="translate(-196.939 -51.538)" fill="#ff6d00" fill-rule="evenodd"/><path d="M217.652,58.021c.013.072.081.113.135.162a.15.15,0,0,0-.056.029.447.447,0,0,0,.045.29c-.01.009-.021.017-.03.028-.044.079-.093.157-.033.25l.038.223c.031.236.132.21.263.07a1.4,1.4,0,0,1-.025-.628c-.006-.063-.011-.127-.017-.19l.072-.249a.165.165,0,0,0-.113-.12h-.007a.092.092,0,0,0,0-.058.149.149,0,0,0,.109-.107l0,.014.024.006.108.214.154-.177a.112.112,0,0,0-.013-.146l.012-.021-.007-.036-.1-.163c0-.06,0-.121-.005-.181-.073-.055-.135-.137-.246-.1,0,.031-.01.066,0,.084.065.089.135.174.2.26l-.138.235c-.2-.027-.2-.216-.269-.348l-.115.181a.536.536,0,0,0,.059.191c-.076.032-.092.114-.126.18,0,.029-.007.058-.01.086C217.605,58.059,217.632,58.058,217.652,58.021Z" transform="translate(-204.31 -56.313)" fill="#ff6d00" fill-rule="evenodd"/><path d="M188.669,101.44a.362.362,0,0,0-.156-.3C188.572,101.227,188.451,101.395,188.669,101.44Z" transform="translate(-179.455 -93.974)" fill="#ff6d00" fill-rule="evenodd"/><path d="M230.435,96.145h0l.009-.007Z" transform="translate(-215.322 -89.697)" fill="#ff6d00" fill-rule="evenodd"/><path d="M202.919,106.87c.034.018.075.038.094-.023s.04-.135-.035-.176c-.022-.012-.064.012-.081.015C202.842,106.77,202.843,106.83,202.919,106.87Z" transform="translate(-191.728 -98.705)" fill="#ff6d00" fill-rule="evenodd"/><path d="M241.878,97.991l.069-.047c.026-.136.036-.266-.119-.337C241.867,97.732,241.764,97.876,241.878,97.991Z" transform="translate(-225.065 -90.953)" fill="#ff6d00" fill-rule="evenodd"/><path d="M189.077,106.577c-.072.225.03.446.015.669.006.107.012.214.019.32a.906.906,0,0,0,.128.567c.135-.18.056-.375.031-.566.029-.084.163-.14.067-.256.178-.3,0-.567-.072-.845,0-.067-.03-.179-.057-.163C189.116,106.358,189.021,106.439,189.077,106.577Z" transform="translate(-179.915 -98.393)" fill="#ff6d00" fill-rule="evenodd"/><path d="M280.48,323.845a.608.608,0,0,0-.1-.345c-.094.063-.025.175-.078.251l.133.174Z" transform="translate(-257.991 -284.221)" fill="#ff6d00" fill-rule="evenodd"/><path d="M206.335,71.284h0l.033.016.1-.215c-.093-.025-.081-.207-.227-.151l-.055.167q0,.136.007.273Z" transform="translate(-194.575 -68.123)" fill="#ff6d00" fill-rule="evenodd"/><path d="M206.313,117.121c-.05.031-.062.076,0,.116.037.023.1.087.12-.012a.215.215,0,0,0-.01-.156C206.357,116.984,206.35,117.084,206.313,117.121Z" transform="translate(-194.648 -107.576)" fill="#ff6d00" fill-rule="evenodd"/><path d="M194.926,124.989a.422.422,0,0,0-.089-.341C194.784,124.783,194.71,124.924,194.926,124.989Z" transform="translate(-184.817 -114.089)" fill="#ff6d00" fill-rule="evenodd"/><path d="M283.464,341.009c-.041-.138-.178-.261-.06-.421.011-.078-.08-.1-.094-.158-.021-.013-.041-.026-.06-.04l-.318-1.035a2.007,2.007,0,0,0,.146,1.136c.038.209.016.447.267.553.035.087.069.207.189.117C283.6,341.113,283.532,341.041,283.464,341.009Z" transform="translate(-260.2 -297.785)" fill="#ff6d00" fill-rule="evenodd"/><path d="M189.61,104.558l.027-.017-.009-.039-.039.009Z" transform="translate(-180.376 -96.852)" fill="#ff6d00" fill-rule="evenodd"/><path d="M269.621,309.072a.062.062,0,0,1-.026.032c-.061-.04-.109-.032-.137.041l-.1.2a.313.313,0,0,1,.036.039l.19.036.142.271a1.337,1.337,0,0,0,.187.685l.1-.021a1.729,1.729,0,0,0-.2-.7A.669.669,0,0,0,269.621,309.072Z" transform="translate(-248.626 -271.876)" fill="#ff6d00" fill-rule="evenodd"/><path d="M270.142,304.325a.515.515,0,0,0-.057-.62C270.022,303.919,269.936,304.136,270.142,304.325Z" transform="translate(-249.183 -267.285)" fill="#ff6d00" fill-rule="evenodd"/><path d="M269.058,300.229c.14-.185.005-.31-.1-.441C268.817,299.974,268.913,300.107,269.058,300.229Z" transform="translate(-248.223 -263.933)" fill="#ff6d00" fill-rule="evenodd"/><path d="M364.658,195.045h0l.021,0Z" transform="translate(-330.159 -174.318)" fill="#ff6d00" fill-rule="evenodd"/><path d="M235.646,127.816c.075.044.139.144.242.056a.074.074,0,0,0,.014-.069.143.143,0,0,0-.206-.055Z" transform="translate(-219.781 -116.723)" fill="#ff6d00" fill-rule="evenodd"/><path d="M216.364,75.746a.169.169,0,0,0-.186.042c-.157.3-.356.6.08.855.071.042.1.149.154.226l.141.226q0,.094,0,.188a.335.335,0,0,0,.051.043c.05.128.017.3.182.367-.107-.16.08-.3.063-.456l.012-.02a.318.318,0,0,0-.01-.23c.058-.079.1-.172.243-.163.1.007.161-.084.042-.17a.217.217,0,0,0,.082-.17.459.459,0,0,0-.067-.212q.042-.41.084-.82l.139-.228c.086-.064.062-.15.049-.234-.069-.017-.1,0-.122.035a.372.372,0,0,0-.092-.158.192.192,0,0,0-.1-.038.312.312,0,0,0-.056-.186l-.018,0a.237.237,0,0,0-.072-.271c-.026.132-.138.23-.085.374l-.1.217a.355.355,0,0,0-.092.356c-.1-.043-.027-.165-.066-.236l.014-.012c.027-.059.024-.109-.041-.142-.4-.366-.293.183-.455.248,0,.082.006.165-.081.213l.087.284a.277.277,0,0,0,.188-.135v0A.517.517,0,0,1,216.364,75.746Z" transform="translate(-202.966 -71.074)" fill="#ff6d00" fill-rule="evenodd"/><path d="M266.956,301.659c.068.117,0,.316.216.357a.612.612,0,0,0-.147-.467Z" transform="translate(-246.568 -265.439)" fill="#ff6d00" fill-rule="evenodd"/><path d="M237.76,133.784c.126-.087.177-.176.049-.343C237.714,133.559,237.663,133.656,237.76,133.784Z" transform="translate(-221.545 -121.612)" fill="#ff6d00" fill-rule="evenodd"/><path d="M240.628,132.075c-.04.214-.036.355.126.45A.684.684,0,0,0,240.628,132.075Z" transform="translate(-224.025 -120.443)" fill="#ff6d00" fill-rule="evenodd"/><path d="M241.624,135.193l-.007,0s0,0,0,.006Z" transform="translate(-224.888 -123.107)" fill="#ff6d00" fill-rule="evenodd"/><path d="M223.722,98.848c-.071.006-.151-.006-.183.084,0,.129.105.249.033.384l.275-.2C223.828,99.015,223.828,98.907,223.722,98.848Z" transform="translate(-209.422 -92.015)" fill="#ff6d00" fill-rule="evenodd"/><path d="M224.446,117.106c.064-.035.131-.106.079-.156-.125-.12-.27-.041-.408.024C224.241,116.993,224.383,116.937,224.446,117.106Z" transform="translate(-209.917 -107.449)" fill="#ff6d00" fill-rule="evenodd"/><path d="M224.358,111c-.009.01.025.06.04.091a.54.54,0,0,0,.13-.079c.032-.035,0-.068-.061-.087A.5.5,0,0,0,224.358,111Z" transform="translate(-210.122 -102.347)" fill="#ff6d00" fill-rule="evenodd"/><path d="M284.183,151.149h.018a.593.593,0,0,1-.138.359c.289-.136.552.157.838.049q-.016-.126-.031-.252c-.015-.19-.2-.139-.315-.188a.517.517,0,0,0,.283-.161.242.242,0,0,0,.193.18c.095-.132.349-.147.318-.373a.369.369,0,0,0,.039-.053.282.282,0,0,0-.013-.122c.137-.051.383.026.312-.273l-.476.022c-.025-.034-.052-.066-.079-.1a.148.148,0,0,0,.136-.119.432.432,0,0,0,.038.023.438.438,0,0,0,.351-.025.377.377,0,0,0,.142-.219c-.239-.267-.445-.034-.662.044-.1.024-.21.037-.234.168a1.091,1.091,0,0,0-.488.552c-.16.1-.388.1-.481.3C283.991,151.059,284.052,151.152,284.183,151.149Z" transform="translate(-261.094 -135.583)" fill="#ff6d00" fill-rule="evenodd"/><path d="M291.721,156.8c.246-.094.28-.334.369-.537l-.129-.1c-.253.033-.4.126-.271.379a.7.7,0,0,0-.624.452.086.086,0,0,0-.081.024q-.055.19-.112.38c.138.162.259.079.377-.028q0-.12-.007-.241C291.477,157.127,291.6,156.961,291.721,156.8Z" transform="translate(-267.031 -141.053)" fill="#ff6d00" fill-rule="evenodd"/><path d="M272.415,144.483c-.054-.134-.17-.115-.279-.114-.132.11-.285.21-.213.42C272.176,144.835,272.246,144.576,272.415,144.483Z" transform="translate(-250.802 -130.961)" fill="#ff6d00" fill-rule="evenodd"/><path d="M271.971,147.284h0s0,0,0-.007l-.011,0s0,.008,0,.012l.012,0Z" transform="translate(-250.848 -133.448)" fill="#ff6d00" fill-rule="evenodd"/><path d="M268.489,147.81l.362-.073q-.012-.19-.024-.381l-.231.047a.35.35,0,0,0-.136.068c-.082.094-.206.167-.146.324Z" transform="translate(-247.716 -133.517)" fill="#ff6d00" fill-rule="evenodd"/><path d="M298.313,146.711c-.2.209-.463.184-.556.422h.273C298.133,147.033,298.3,146.978,298.313,146.711Z" transform="translate(-272.92 -132.965)" fill="#ff6d00" fill-rule="evenodd"/><path d="M281.465,159.688a.307.307,0,0,1,.056-.36.284.284,0,0,0-.392.265C281.126,159.776,281.345,159.662,281.465,159.688Z" transform="translate(-258.694 -143.744)" fill="#ff6d00" fill-rule="evenodd"/><path d="M279.447,164.03c-.191-.071-.433-.262-.409.174C279.223,164.262,279.426,164.361,279.447,164.03Z" transform="translate(-256.903 -147.695)" fill="#ff6d00" fill-rule="evenodd"/><path d="M163.221,106.147c-.123,0-.258-.031-.329.091a.2.2,0,0,0-.041-.031l-.715.356a4.593,4.593,0,0,1-1.078.824.093.093,0,0,0-.045.078c-.276.027-.412.28-.634.395a.514.514,0,0,0-.378.163.111.111,0,0,1-.069-.033l.029-.08c.191-.358.659-.407.852-.764l.178-.092c.041-.085.1-.166.045-.266a3.821,3.821,0,0,1,.786-.8.051.051,0,0,0,.067.01c.138-.012.17-.143.25-.22l.091-.142.016-.068a.372.372,0,0,0,.094-.009c.17-.069.19-.244.266-.378l.038-.082a.054.054,0,0,0,.027-.076l-.214.071c-.129-.011-.248-.122-.386-.04l-.089.143a.406.406,0,0,0-.419.047c-.257-.078-.408.078-.551.251-.617.34-1.175.779-1.821,1.071-.115,0-.193.041-.207.165h0a.219.219,0,0,0-.056-.022l-.156.184c-.165-.128-.236.078-.359.1-.23.043-.1-.066-.058-.137.152-.086.053-.23.079-.345l.347-.175c.091.011.108-.073.154-.119l.156-.292-.071-.177c.063-.087.064-.232.22-.231l.205-.057q.021-.191.041-.381c.106-.09.215.11.321,0l.024-.083.177-.292c.071.029.1-.034.142-.067,0-.136-.131-.16-.2-.235a.254.254,0,0,0,.031-.036.721.721,0,0,1,.164-.215l.012-.032a.16.16,0,0,0,.016-.138c.064-.043.023-.131.048-.191.011.013.03.009.055-.012.349.009.4-.327.579-.51a.075.075,0,0,0-.017-.07c-.2-.1-.323.1-.489.135-.16-.093-.212.036-.278.136l-.256-.059c-.135-.2-.212-.01-.309.045a2.333,2.333,0,0,0-1.278.484.051.051,0,0,0-.049.03.388.388,0,0,0-.3.065,5.36,5.36,0,0,0-1.6.7l-.33-.09c-.177-.246-.26-.079-.344.079-.284.211-.665.26-.908.539h0l-.632.409c-.136-.045-.211.108-.335.1a.926.926,0,0,0-.872.413.345.345,0,0,0-.054-.1l-.021-.034.055-.11s0,0,0-.006c.021.014.044.031.068.025.359-.242-.012-.366-.089-.537.066-.252-.066-.33-.283-.3a1.439,1.439,0,0,0-.8.331c-.056.083-.182-.257-.219.039-.008.065-.135.123-.217.168-.586.322-1.212.563-1.812.857a.544.544,0,0,0,.034-.154.4.4,0,0,0-.372.328q-.156.084-.307.178l-.417.107-.025,0c-.132-.517-.389.082-.563-.063q-.022-.2-.043-.4c0-.085,0-.17.005-.255-.244.057-.423-.09-.618-.189.157-.251.3-.51.445-.775a.318.318,0,0,0,.041-.365c-.068-.126.142-.228.035-.36-.19.067-.076.229-.116.342-.142-.152-.267-.357-.512-.139-.047.042-.131.052-.144-.026-.089-.527-.366-.124-.561-.118-.1.015-.218-.01-.284.1l-.542.2a.068.068,0,0,0-.054.012c-.017-.125-.088-.145-.21-.013a1.091,1.091,0,0,1-.294-.941,23.121,23.121,0,0,1-.066-4.354l.075-.255h0l.235-.14-.255-.15-.089.135a.171.171,0,0,0-.054.063l-.167-1.565c.061-.131-.034-.224-.082-.329.019-.082-.029-.129-.09-.17-.094.076-.04.175-.042.265a.238.238,0,0,0-.013.192.589.589,0,0,0-.177.264c0,.005,0,.011,0,.017h0c-.068-.088-.025-.269-.181-.271-.09,0-.05.136-.092.2l0,.005-.237.059-.073-.043c-.058.165-.278.206-.3.4,0,.015,0,.03.008.045a.549.549,0,0,1,.051.182c0,.013.007.027.01.04-.108.413.055.851-.1,1.259a1.239,1.239,0,0,0-.079.5,1.174,1.174,0,0,0,.048.342.257.257,0,0,0,.051.049.14.14,0,0,0-.034.088c-.011-.084-.062-.162-.074-.246a.452.452,0,0,0-.08-.141.1.1,0,0,1-.021-.007l.09-.113-.092-.157c.018-.1-.064-.195.012-.287-.068-.067-.04-.14-.013-.213l-.011-.037-.033,0,.011-.009a.276.276,0,0,0-.005-.354.113.113,0,0,0,.034-.09c-.178-.03-.149-.2-.217-.311q0-.233-.007-.466a.1.1,0,0,0,.025,0,.216.216,0,0,0,.079-.069.213.213,0,0,0,.021-.1.6.6,0,0,0-.161-.206.112.112,0,0,0-.025,0l.007,0c.034.008.05-.005.047-.04l-.074-.179c-.131.061-.072.182-.09.28h0l-.067.056a.213.213,0,0,0,.013.071c-.081-.063-.155-.143-.274-.128-.116.219-.246.437-.01.661v-.006c.1-.055.107-.183.181-.259.035-.044-.021-.134.075-.147l.077.043c.064.171-.039.368.08.53l-.141.228-.222-.236a.218.218,0,0,0-.086.3.113.113,0,0,1,.042.053.4.4,0,0,0-.034.376c-.018.087.034.192-.065.258l.029.117c-.069.141.052.3-.045.439.081.05.117-.133.206-.04-.038.133.031.2.143.252l.081.176c-.074.19-.088.353.176.391-.034.141-.262.262-.044.429,0,.113.075.15.174.157.005-.007.008-.014.013-.022v.007a.208.208,0,0,1-.1.22c0,.495.115.984.072,1.48h0a.2.2,0,0,0-.186.1l-.039-.1c.167-.207-.091-.248-.144-.369.036-.067.08-.132.025-.209l-.106.152c.016.133-.177.159-.15.3l-.054.075a11.032,11.032,0,0,1-.787-2.629l-.184-.13q-.022-.151-.044-.3c.02-.127-.055-.259.021-.384l.081-.141c.061-.124.279.119.29-.124.015-.088.03-.175.046-.263l-.212-1.288a.281.281,0,0,0-.114-.287c-.108-.07-.034-.269-.208-.292l-.133-.112-.069-.228.09-.129c.083.013.11-.051.143-.106l-.143-.089-.056-.237-.141-.083a.356.356,0,0,0-.047-.407c-.183.116-.145.26-.067.408a.179.179,0,0,0-.058.035.187.187,0,0,0-.045.132.128.128,0,0,0-.087.01l-.071-.208c0-.088.039-.195-.078-.234-.075-.025-.113.045-.146.1l.1.165-.038.248.072.247c-.05.113.039.172.091.244a.252.252,0,0,0-.032.027.2.2,0,0,0-.025.083c-.089.026-.088.113-.094.2l.164.089a.514.514,0,0,0,.053.1.2.2,0,0,0,.163.048c-.131.139-.036.343-.093.5a.209.209,0,0,1-.036.044.119.119,0,0,1-.015-.082c.012-.139-.071-.221-.226-.191.006.129.1.239.1.368a.255.255,0,0,0-.078.075,3.467,3.467,0,0,0,.278,1.49c.014.063.089.1.154.135a.135.135,0,0,0,.042,0h0a.059.059,0,0,0-.023.049.424.424,0,0,0-.078.028c-.044.059-.1.117-.061.186a.378.378,0,0,0-.039.023,1.8,1.8,0,0,0-.091.439,3.844,3.844,0,0,1-.053.749.687.687,0,0,0,0,.1.157.157,0,0,1-.159.092l-.113-.1a.352.352,0,0,0-.052-.417c.061-.147.05-.253-.144-.258l.039.208-.049.155.132.277a2.406,2.406,0,0,0,.017.911q0,.179-.006.359a.658.658,0,0,1,.05.432l-.037.055,0,0a3.711,3.711,0,0,0-.056-.474c-.117-.542.017-1.1-.12-1.641-.053-.137-.083-.3-.28-.3a.152.152,0,0,0-.073.092.271.271,0,0,1-.065-.2.567.567,0,0,0-.039-.21.131.131,0,0,0-.1-.04c-.132.158-.074.354-.107.532-.221.353-.082.816-.357,1.152a1.317,1.317,0,0,0-.03.246.944.944,0,0,0-.01.317,2.861,2.861,0,0,0,.11.553.673.673,0,0,0-.123-.213.182.182,0,0,0-.04-.018c0-.046,0-.092,0-.139l-.159-.233a.618.618,0,0,1-.012-.1.269.269,0,0,0-.092-.2,2.477,2.477,0,0,1-.366-1.383,1.76,1.76,0,0,1-.26-.376c-.12-.179-.114-.431-.321-.559-.057-.1.049-.248-.091-.328-.159.076-.005.273-.14.357v.009l-.177-.2c-.128-.122-.041-.355-.228-.446a.513.513,0,0,0,.118.465l.014.139.026.053-.027.01c-.113.013-.273-.123-.319.1a.189.189,0,0,0,.011.022c-.033,0-.051.017-.049.057-.071.258.089.567-.172.783.1.459.129.927.193,1.391.006.023.01.046.014.069-.193-.281-.119-.647-.294-.934l-.057-.228a.322.322,0,0,0-.03-.306c-.051-.048-.1-.074-.1.03-.007.063-.013.126-.02.188.018.012.036.025.053.039l-.159.291c-.044.041-.047.071-.017.093a.694.694,0,0,0,.021.443.477.477,0,0,0,.175.293c.017.01.032.019.045.028a1.1,1.1,0,0,1-.009.249.291.291,0,0,0-.1.106.31.31,0,0,0-.051.1.609.609,0,0,0,0,.122,1.383,1.383,0,0,1-.027-.262c-.016-.166-.074-.324-.092-.489a1.8,1.8,0,0,0-.155-.706c-.05-.1-.093-.214-.227-.237l-.085.133c-.136.035-.2-.017-.214-.157a7.462,7.462,0,0,0-.3-1.117l-.05-.42.04-.073c-.133-.134.062-.4-.183-.486-.167.205-.033.395.037.587-.01.144-.07.291.035.425a10.1,10.1,0,0,0,.211,1.294,1.054,1.054,0,0,0,.031.749,1.919,1.919,0,0,1,.125.755c.029.41-.057.838.268,1.173-.13,0-.262.032-.393.037l.041.018a.11.11,0,0,1-.041-.018,1.976,1.976,0,0,0-1,.009.916.916,0,0,0-.093.027l-.048.014-.005,0a10.505,10.505,0,0,0-2.516.637.207.207,0,0,0-.188.162c-.073.079-.142.179-.259.055.017.083-.009.182.053.248,0,0,0,.005,0,.009a.36.36,0,0,0,.015.114.275.275,0,0,0-.142-.089c-.3.2-.662.337-.693.775-.163.09-.526-.116-.462.312-.219.015-.352.193-.53.287a.445.445,0,0,0-.085.036.8.8,0,0,0-.675,1.01,2.547,2.547,0,0,1,0,.322c-.122.153,0,.323-.034.482.008.273.008.273.2.174.074-.009.149-.016.174-.106h.182l.381-.216a1.4,1.4,0,0,0,.66-.142h0c.176-.03.368,0,.521-.123l.04,0,.034-.022c.17.06.341.14.5-.023.164.094.348.027.519.061.076.1.472.1.112.34a20.922,20.922,0,0,1-2.151.9l-.1-.091c.044-.113.242-.212.1-.34s-.225.041-.312.137a1.219,1.219,0,0,1-.167.132l-.181.027c-.008.052-.015.105-.023.158l-.157.02c-.263-.032-.4.118-.588.289-.31.279-.141.7-.438.979a.8.8,0,0,0-.183,1.148c.052.07.111.181.02.249-.217.162-.154.359-.13.576.028.253-.378.7-.518.6-.115-.084-.155-.138-.209,0-.044.111.087.137.162.18.01.146-.031.308.181.367.155.044.2.172.064.274-.278.214-.251.5-.229.792a.751.751,0,0,1-.279.8,1.236,1.236,0,0,0-.4.563,12.365,12.365,0,0,0-.621,2.872c-.039.53-.431,1.13.264,1.537l.03.017h0l.007,0,0,0h0l-.013-.012a2.655,2.655,0,0,0,1.789-.086,16.414,16.414,0,0,1,3.713-1.386c-.31.445-.278.669.065,1.02a.437.437,0,0,0,.378.057,4.144,4.144,0,0,0-.913.688,8.685,8.685,0,0,1-1.9,1.684c-.155.1-.38.2-.381.426s-.128.252-.29.268a.8.8,0,0,0-.785.839c-.09.209-.122.4.154.5a13.487,13.487,0,0,0,2.048.2c.1.039.118-.077.186-.1.158-.128.045-.4.268-.5a.459.459,0,0,0,.078-.049l.417.18.149-.037a1.072,1.072,0,0,0,.657.156,7.962,7.962,0,0,1,1.823.108c.506.1,1.016.17,1.524.255.295.176.35.165.383-.077l.1-.14.255-.075-.044-.062a.131.131,0,0,1,.044.062c.36.2.249-.221.4-.3a3.523,3.523,0,0,0,.6-.615,1.833,1.833,0,0,1,1.839-.8c.308,0,.617.06.875-.181.106-.1.254-.082.388-.1.392-.044.6.376.966.39a.085.085,0,0,0,.074.021l.025.032.038.016c.038.145.179.183.278.263.132-.031.123-.116.082-.213a.3.3,0,0,0-.024-.026l.058-.1h0l.1.171-.077.136a.083.083,0,0,0-.055.1c.171.038.049.355.3.316.043.156.182.206.3.274l.078.058c.087.173.247.332.41.292a.122.122,0,0,0,.052-.03c.034.049.067.1.1.146.031.225.273.184.386.3a.17.17,0,0,0,0,.19c-.047.038-.03.074,0,.11l.032.3c-.036.084-.147.147-.07.261-.025.144-.063.291.072.407.308.188.46.569.832.678l.2.379c.063.03.108.027.112-.058l-.121-.273-.091-.075-.008,0,0,0a.263.263,0,0,0,.036-.087c.126-.031.294.035.351-.156l-.048-.239a1.323,1.323,0,0,0,0-.214c.033.092.093.156.259.106l.076-.032a1.025,1.025,0,0,0,.177.264,9.436,9.436,0,0,1,.511,1.281c.15-.3-.206-.53-.023-.784l.131.1.085.022c.138.036.186-.223.349-.105l.034-.213a.153.153,0,0,0-.07-.046l-.21-.835.063-.061c.055.064.1.221.178.013l-.1-.24a.194.194,0,0,0,.017-.016.069.069,0,0,0-.023-.1c-.042-.222-.21-.443-.082-.67a1.624,1.624,0,0,0,.132-.995c0-.048.013-.1.017-.144a1.313,1.313,0,0,1,.084.119c.1.2,0,.47.225.624a1.274,1.274,0,0,0,.129.758,1.021,1.021,0,0,0-.126-.759c.151-.255-.053-.491-.044-.738a.625.625,0,0,0-.01-.159c.038.05.081.1.118.146a3.617,3.617,0,0,1,.464,1.208c.069.89.354,1.735.492,2.61a.529.529,0,0,0,.293.473c-.072.19.025.263.2.285.1-.183-.137-.23-.148-.368a5.668,5.668,0,0,0-.273-1.036c.107-.084.173.022.254.057a.389.389,0,0,0-.027-.059.125.125,0,0,1,.027.059c.05.195.092.393.154.584.049.15.126.179.195,0-.135-.291-.065-.631-.217-.919.142-.107.064-.24.011-.336a7.137,7.137,0,0,1-.44-2.311c-.152-.863-.249-1.756-.322-2.639a7.64,7.64,0,0,1-.12-.814,4.146,4.146,0,0,1,.805.021c.181.05.353.216.55.04l.033.025.041-.006c.378.335.809.148,1.223.125a.272.272,0,0,0,.386.047c.066.263.261.067.39.109a.251.251,0,0,0,.257-.044l.2,0c.2.082.377.365.626.082.015-.052-.029-.092-.03-.14l.015-.017c-.169-.036-.315-.255-.513-.066l-.324-.173a.2.2,0,0,0-.259.024.183.183,0,0,0-.248-.07.3.3,0,0,0-.033-.068l.225-.108-.025-.064a.18.18,0,0,0-.248-.006l-.1.054a.44.44,0,0,0-.04-.02,2.582,2.582,0,0,0-.576-.079.3.3,0,0,0,0-.109c.14-.006.287.037.412-.065a.131.131,0,0,1-.078-.1l.077.1.2.047c.037-.229.188-.3.4-.3l.129-.02.151.075c0-.1-.024-.2.087-.262l.034.024.04.014.146.076.035.029.041.021c.1-.107.277-.046.357-.182.025.005.049.011.073.017a.383.383,0,0,0,.053-.052c.132.084.277.011.413.035-.007-.045-.014-.09-.021-.135-.135-.1-.246.051-.372.036l.024-.017c-.062-.183-.188-.213-.354-.15a.154.154,0,0,0-.022.022l-.1-.159-.144-.1a.142.142,0,0,0-.12.112l-.052-.091,0-.005a.163.163,0,0,0,0-.121c-.082-.055-.184-.095-.181-.22a.284.284,0,0,1-.069-.048l-.044.008a.059.059,0,0,0,0-.022.129.129,0,0,1,.045.014q.009-.1.018-.2c.107.041.169-.036.238-.092a.3.3,0,0,0,.394-.069.286.286,0,0,0-.361.037c-.187-.021-.39.007-.528-.168.039-.094.038-.145.015-.173a1.56,1.56,0,0,1,.8-.114.39.39,0,0,0,.274.008.285.285,0,0,0,.12.073l.021-.036c.016.028.015.058-.024.093l.053.029-.188.14c.009.15.113.154.224.144l.1-.139a.438.438,0,0,0,.409.016c.179.051.3-.07.435-.147l-.03-.11c-.156-.088-.277-.1-.312.1a.4.4,0,0,0-.248-.088.236.236,0,0,1-.071-.141,1.229,1.229,0,0,0,.917-.184,1.225,1.225,0,0,1,.214-.144h0c.1-.012.218.026.339-.118a.436.436,0,0,1-.113,0,1.542,1.542,0,0,0,.343-.21h0a1.774,1.774,0,0,0,.937-.428l-.007,0,.007,0h0a1.282,1.282,0,0,0,.507-.182l-.008,0a.738.738,0,0,0,.392-.171h-.006l.007,0h0a1.142,1.142,0,0,0,.4-.133.177.177,0,0,0,.155-.1l.231-.058a.493.493,0,0,0,.339-.389l-.025,0c.138-.05.2-.124.078-.252a.524.524,0,0,1-.152-.016.869.869,0,0,0-.2-.025.082.082,0,0,0,.018-.029l.006.008a.119.119,0,0,0,.111,0c.076-.084.094-.211.2-.268l.007-.026.02-.017c-.224-.2-.264.068-.378.148l-.575.15a.106.106,0,0,0-.07.09c0,.011,0,.022.006.032a.155.155,0,0,1-.138.051l-.132-.094a1.336,1.336,0,0,0,.3-.218c.033-.072.171-.072.134-.193.038-.088.118-.1.193-.115.011.01.02.019.033.029a.905.905,0,0,0,.777-.288l.283-.133c.12-.078.267-.095.388-.171l.27-.122a1.8,1.8,0,0,0,.7-.367h0c.21-.231.552-.254.761-.485a.318.318,0,0,0,.039-.07l.147-.067.125-.2c.041-.1-.017-.133-.094-.16.049-.146.263-.147.281-.32l.174-.29.174-.094.006-.041.025-.033a.854.854,0,0,0-.031-.31c-.055-.064,0-.122.009-.183l.149-.279-.23-.063c-.112-.13.008-.186.081-.257l.179-.017.178-.264a.089.089,0,0,0,.069.026l.424-.222c-.064-.237-.322-.117-.448-.242l.008-.019c-.11-.014-.211-.007-.256.126l-.132-.084a.434.434,0,0,1,.271-.228c.147-.046.234-.133.152-.3.183-.1.216-.317.343-.46l-.232.056c-.059.041-.129.062-.185.108l-.078-.052a.215.215,0,0,0,.026-.022.546.546,0,0,0,.079-.225l.009-.039.021-.034a.37.37,0,0,0-.43.106c-.121.169.207.077.159.227a.138.138,0,0,0,.034.011.1.1,0,0,1-.034-.011.076.076,0,0,0-.051.034c-.089-.013-.193.091-.266-.036l-.04-.123c0-.04.009-.081.013-.121h.005a3.765,3.765,0,0,0,1.073-.7c.125.007.149-.108.214-.174.135-.075.133-.268.283-.331.114,0,.146-.1.208-.161a.226.226,0,0,0,.1-.148l-.012-.026.318-.218a.186.186,0,0,0,.017.013c.277-.007.382-.282.6-.382.118,0,.149-.1.209-.168.1-.088.191-.178.152-.329a.191.191,0,0,0-.032-.029l.006-.01a.221.221,0,0,0,.2-.035c.091-.156.278-.228.346-.411C163.471,106.069,163.323,106.142,163.221,106.147Zm-3.638.972,0,.007C159.573,107.119,159.578,107.12,159.584,107.119Zm-9.153,1.156-.024.014C150.4,108.28,150.405,108.273,150.43,108.275Zm1.466,7.848a.213.213,0,0,0-.025-.007c0-.013,0-.026,0-.038C151.882,116.093,151.888,116.107,151.9,116.123Zm-22.391-.2,0-.005v0h0l0,0,0,.006Zm21.4-8.9v0h0a.014.014,0,0,1,0,0h0v0h0s0,0,0,0Zm-16.736,11.134a.223.223,0,0,1,.112.008.418.418,0,0,0,.107,0,.31.31,0,0,0,.1-.052c.042-.036.083-.073.123-.11a1.715,1.715,0,0,1,.526-.167c.421-.07.778-.337,1.19-.436a9.791,9.791,0,0,1-1.286.547c-.137.056-.273.113-.406.179-.1.044-.189.1-.288.135a3.857,3.857,0,0,0-.388.163l-.031.012Zm11.879,4.4h0v0l0,0v0Zm-14.579-12.142h0ZM128,116.94l0,.007v-.007Zm30.365-12.723,0,0,0-.008A.038.038,0,0,1,158.361,104.217Zm0,0ZM130.5,118.859a.8.8,0,0,1-.152-.014A.262.262,0,0,1,130.5,118.859Zm14.546,5.729,0,0v.005h0Zm13.838-12.708s0,0,0-.007l.006,0Zm-5.68-5.248h0l-.013,0,0,0Zm-6,.99c0,.007,0,.012,0,.018l-.468.011.053.41c-.04.222-.362.052-.4.283a.306.306,0,0,1-.112.021l-.229.392h-.021a1.487,1.487,0,0,0-.25.064.176.176,0,0,0,.04-.015c.092-.178.283-.331.232-.545a.874.874,0,0,0,.117-.08c.22-.173.272-.515.591-.586.042-.019.083-.04.121-.063s.075-.017.112-.023C147.07,107.525,147.217,107.465,147.2,107.621Zm-2.906-7.837h0Zm-4.8,2.986h0Zm-8.983,7.242h0l0,0Zm14.291,15.8,0,0h0Zm0,0,.015.006-.013.013C144.8,125.828,144.8,125.822,144.8,125.815Zm2.63-6.3a.251.251,0,0,1-.013.042c-.008-.028-.021-.041-.041-.038l.008-.005a.232.232,0,0,0,0-.055c.111-.013.224.019.335,0a.084.084,0,0,0,.007.036C147.628,119.479,147.528,119.444,147.432,119.519Zm2.428-.454-.029-.015.007-.014.017.007Zm-.6-.85v.017l-.313-.224-.144.254c-.117.108-.226-.124-.343-.008a.212.212,0,0,1-.072-.035l-.309.13a.174.174,0,0,1-.061-.022l-.212.07a.507.507,0,0,1,.2-.069l.247-.171.026.013a.225.225,0,0,0,.228-.036l.044-.073.027,0a.15.15,0,0,0,.112-.069l.033-.01c.05.049.108.006.165-.009l.037,0a.308.308,0,0,1,.061.019.593.593,0,0,0,.332-.009l.023.025a.488.488,0,0,0,.14.178.611.611,0,0,0,.082.084C149.461,118.26,149.362,118.223,149.26,118.215ZM147.1,107.342a.566.566,0,0,0,.04-.058.347.347,0,0,0,.038.028Zm-3.767-6.443,0-.006s0,0,0,.005Zm-2.673,1.1h0Zm-1.334,2.63c0,.029-.006.058-.009.087a1.238,1.238,0,0,0-.166.024c-.058-.014-.117-.025-.175-.035a.538.538,0,0,1,.028-.051c.181.113.2-.082.279-.149l-.011-.047a.172.172,0,0,1,.027-.024c0-.005.005-.011.008-.017A.618.618,0,0,1,139.325,104.628Zm-2.356-1.51v.005l0,0Zm-5.929,3.615h0Zm16.9,12.933v-.008l0,0Zm-11.423-16.011c.077.145.14.305.34.32a.369.369,0,0,0,.179-.1.262.262,0,0,0,.034.2q.007.1.013.2l-.148.195c-.089.006-.114.075-.149.135l-.2,0,0,0v0c-.028-.316-.075-.63-.119-.944a1.983,1.983,0,0,0-.036-.259A1.7,1.7,0,0,0,136.514,103.656Zm-5.021,2.233a.46.46,0,0,0,.045-.014l-.007.014a.578.578,0,0,0,.121.1.374.374,0,0,0-.157.036.914.914,0,0,0-.058-.17A.171.171,0,0,0,131.493,105.89Zm11.354,16.774a1.679,1.679,0,0,1-.078-.428.684.684,0,0,0-.026-.106,1.305,1.305,0,0,1-.071-.505.169.169,0,0,0,.093-.052h0l.184.6.3.967c-.018.1.07.193.065.292-.189.009-.12.183-.138.3a.418.418,0,0,0,.051.022,7.275,7.275,0,0,0,.3.915,3.182,3.182,0,0,0,.323,1.081l-.035.063c-.151-.252-.132-.61-.438-.765.007-.01.014-.019.02-.029a.723.723,0,0,0-.022-.493A17.938,17.938,0,0,0,142.847,122.664Zm4.629,4.088,0,0h-.005Zm1.646-6.742h0a.275.275,0,0,0-.171-.064.138.138,0,0,0-.115.126l-.009.015a.206.206,0,0,0-.1-.077.217.217,0,0,0-.13.024.657.657,0,0,0-.137.121c-.029-.068-.124-.115-.075-.208l.063-.144-.194-.128-.065-.079.079-.163.676-.006c-.071.241-.023.37.261.279.085.041.144.1.118.2a.73.73,0,0,1-.06.05A.109.109,0,0,0,149.122,120.01Zm1.921-.46,0,0h-.009l.01-.008s0,.01,0,.015Zm8.324-6.941c.018-.018.034-.036.049-.053a.111.111,0,0,0,.013.026Z" transform="translate(-125.797 -89.737)" fill="#ff6d00" fill-rule="evenodd"/></g><path d="M-11.555-27.5l-5.309-14.9h-3.144l6.752,17.91h3.4L-3.128-42.4H-6.221Z" transform="translate(5.37 57.161)" fill="#fff"/></g></g></svg>