<svg xmlns="http://www.w3.org/2000/svg" xmlns:xlink="http://www.w3.org/1999/xlink" viewBox="0 0 410.151 118.631"><defs><filter id="a" x="115.181" y="9.53" width="294.97" height="102.085" filterUnits="userSpaceOnUse"><feOffset dy="1" input="SourceAlpha"/><feGaussianBlur stdDeviation="1.5" result="b"/><feFlood flood-opacity="0.769"/><feComposite operator="in" in2="b"/><feComposite in="SourceGraphic"/></filter></defs><g transform="translate(31.092 1)"><path d="M390.445,123.955a4.79,4.79,0,0,0-2.324.255,2.118,2.118,0,0,0-.292-.087l-5.057.993c-2,1.043-5.04,1.552-7.622,2.3-.205.054-.313.127-.319.217-1.953.075-2.914.781-4.483,1.1a7.159,7.159,0,0,0-2.674.455,1.506,1.506,0,0,1-.486-.091c.068-.074.135-.148.2-.222,1.349-1,4.664-1.136,6.022-2.131l1.258-.256c.288-.236.682-.464.32-.743a29.5,29.5,0,0,1,5.56-2.221.792.792,0,0,0,.471.027,3.829,3.829,0,0,0,1.77-.613l.645-.395c.037-.063.076-.126.112-.188a6.564,6.564,0,0,0,.664-.025c1.2-.191,1.344-.679,1.884-1.053.09-.077.179-.153.266-.23.23-.048.286-.119.19-.213l-1.512.2a9.629,9.629,0,0,0-2.728-.113q-.317.2-.63.4a6.719,6.719,0,0,0-2.964.131,6.363,6.363,0,0,0-3.9.7c-4.36.949-8.311,2.173-12.874,2.986-.81-.006-1.362.115-1.463.46l.014,0a3.263,3.263,0,0,0-.4-.062l-1.1.512c-1.168-.358-1.672.219-2.54.283-1.63.12-.7-.184-.413-.382,1.072-.241.374-.641.56-.962l2.455-.487c.64.031.762-.2,1.09-.332l1.1-.814-.5-.492c.442-.243.454-.647,1.553-.645l1.452-.159q.146-.531.287-1.063c.749-.251,1.524.307,2.268-.012l.166-.231,1.251-.814a1.694,1.694,0,0,0,1-.186c.01-.38-.927-.447-1.432-.656a1.668,1.668,0,0,0,.219-.1,4.1,4.1,0,0,1,1.163-.6l.088-.09c.2-.126.211-.256.112-.385.452-.12.163-.365.337-.531a.592.592,0,0,0,.392-.035c2.469.024,2.813-.911,4.095-1.421.067-.026-.013-.174-.118-.194-1.435-.292-2.284.275-3.457.378a2.1,2.1,0,0,0-1.969.379l-1.812-.165c-.952-.564-1.5-.027-2.188.124a34.674,34.674,0,0,0-9.04,1.35.56.56,0,0,0-.348.083,6.34,6.34,0,0,0-2.109.181c-3.739.685-8.137.775-11.336,1.95l-2.334-.25a1.871,1.871,0,0,0-2.435.221c-2.008.588-4.7.724-6.42,1.5h.005l-4.469,1.139c-.96-.126-1.492.3-2.371.283-2.541-.016-4.728.258-6.167,1.153a1.281,1.281,0,0,0-.383-.274c-.048-.03-.1-.063-.145-.1l.388-.308c0-.006.005-.011.005-.017a1.3,1.3,0,0,0,.478.069c2.54-.675-.086-1.019-.626-1.5.469-.7-.467-.921-2-.831a20.7,20.7,0,0,0-5.628.922c-.4.233-1.288-.717-1.551.109-.057.18-.958.344-1.532.469-4.145.9-8.572,1.568-12.811,2.389a.858.858,0,0,0,.243-.43c-1.449.062-2.277.386-2.629.915q-1.1.236-2.171.495l-2.947.3c-.058-.005-.112,0-.174-.011-.937-1.443-2.754.23-3.984-.174-.1-.374-.2-.748-.3-1.122.009-.237.022-.474.036-.712a13.646,13.646,0,0,1-4.367-.527c1.11-.7,2.154-1.42,3.148-2.161.749-.31.641-.659.292-1.018-.484-.352,1.005-.637.247-1-1.343.186-.538.64-.822.953a4.148,4.148,0,0,0-3.619-.387c-.335.118-.927.145-1.019-.072-.626-1.469-2.585-.345-3.967-.329a4.5,4.5,0,0,0-2,.287l-3.834.57a1.108,1.108,0,0,0-.385.034c-.117-.347-.624-.4-1.488-.036-2.223-.68-2.021-1.741-2.082-2.622-.283-4.044-2.119-8.083-.465-12.138.179-.237.355-.473.533-.71h0l1.664-.389-1.8-.418-.63.377a1.1,1.1,0,0,0-.38.175q-.588-2.181-1.179-4.364c.428-.366-.243-.624-.578-.916.134-.23-.208-.36-.634-.473-.662.211-.281.487-.3.738-.223.182-.255.362-.092.536a2.8,2.8,0,0,0-1.251.736.32.32,0,0,0-.025.047h-.006c-.482-.245-.174-.749-1.277-.755-.634,0-.353.379-.654.558l.028.014-1.677.163-.516-.121c-.411.46-1.963.575-2.142,1.1.016.042.033.085.053.127a1,1,0,0,1,.359.506,1.22,1.22,0,0,1,.074.112c-.764,1.151.386,2.371-.684,3.51a1.707,1.707,0,0,0-.561,1.381,1.532,1.532,0,0,0,.342.955,2.067,2.067,0,0,0,.358.138.347.347,0,0,0-.241.245c-.079-.234-.436-.453-.525-.686a1.759,1.759,0,0,0-.567-.392c-.058,0-.1-.013-.151-.02l.637-.315c-.216-.146-.436-.292-.654-.438.125-.265-.456-.542.086-.8-.483-.187-.282-.39-.09-.593l-.078-.1-.235.006c.028-.008.045-.017.075-.024.508-.337.667-.67-.038-.987.173-.07.255-.152.239-.25-1.256-.083-1.057-.568-1.535-.866q-.025-.65-.05-1.3a1.649,1.649,0,0,0,.18-.012,1.93,1.93,0,0,0,.56-.192.326.326,0,0,0,.148-.288,3.5,3.5,0,0,0-1.141-.575c-.063-.008-.117-.008-.174-.011l.051-.01c.24.023.35-.014.33-.112l-.521-.5c-.929.169-.511.508-.634.781h0l-.473.156a.3.3,0,0,0,.089.2,4.954,4.954,0,0,0-1.937-.356c-.817.61-1.737,1.22-.067,1.844l0-.017c.743-.154.754-.509,1.278-.723.247-.122-.148-.374.53-.409l.542.119c.456.477-.275,1.025.569,1.478l-1,.636-1.568-.657c-.781.216-1.047.49-.611.843a.648.648,0,0,1,.294.148c-.589.331-.537.684-.242,1.047-.13.243.239.535-.463.719.069.108.138.217.208.325-.488.393.368.84-.316,1.225.571.14.825-.372,1.455-.11-.271.37.222.57,1.012.7.191.163.383.327.573.491-.52.529-.625.984,1.244,1.089-.243.393-1.85.731-.309,1.2.025.314.532.417,1.23.436.039-.021.059-.04.093-.061v.021c.156.275-.2.457-.71.613.012,1.379.813,2.742.512,4.127l-.007,0a2.344,2.344,0,0,0-1.314.292l-.276-.277c1.18-.577-.644-.691-1.021-1.028.256-.186.563-.368.175-.583l-.751.425c.115.37-1.253.443-1.059.828q-.19.1-.379.208a21.173,21.173,0,0,1-5.562-7.33l-1.3-.361c-.1-.281-.206-.562-.311-.843.14-.354-.386-.723.147-1.07l.573-.392c.434-.345,1.976.333,2.049-.345.109-.244.215-.489.326-.733q-.752-1.8-1.5-3.591c.1-.325-.1-.6-.809-.8-.766-.2-.243-.749-1.47-.815l-.939-.312c-.16-.211-.323-.423-.485-.635l.637-.36a1.3,1.3,0,0,0,1.01-.3l-1.01-.247q-.2-.33-.4-.659l-1-.231c.442-.405.441-.788-.335-1.136-1.3.325-1.022.725-.477,1.138a2.188,2.188,0,0,0-.411.1c-.225.113-.345.235-.319.368a2.2,2.2,0,0,0-.617.027l-.5-.579c.016-.246.274-.544-.552-.653a1.294,1.294,0,0,0-1.033.286l.736.461c-.091.23-.181.461-.272.69.17.23.341.459.511.689-.352.316.275.478.647.68a2.355,2.355,0,0,0-.225.075.393.393,0,0,0-.176.232c-.629.073-.624.315-.667.545l1.159.247a1.859,1.859,0,0,0,.378.278,3.17,3.17,0,0,0,1.15.135c-.925.387-.257.957-.656,1.4a1.286,1.286,0,0,1-.252.122.189.189,0,0,1-.1-.228c.082-.387-.5-.617-1.6-.533.041.36.685.667.743,1.025a2.054,2.054,0,0,0-.55.21c-.767,1.488,1.18,2.779,1.966,4.153.1.176.632.29,1.091.375a2.407,2.407,0,0,0,.3,0l-.007,0c-.12.038-.158.085-.16.136-.186.02-.372.042-.553.077-.314.165-.7.325-.429.517-.088.018-.18.038-.277.064-.508.384-.392.819-.64,1.223-.1.7.074,1.4-.376,2.087a.758.758,0,0,0,0,.272,1.772,1.772,0,0,1-1.126.256l-.8-.269c.678-.426.255-.8-.366-1.161.433-.41.351-.706-1.018-.72.091.193.183.386.273.58l-.347.431.931.773a2.78,2.78,0,0,0,.117,2.54c-.013.333-.028.667-.04,1,.372.39.676.783.354,1.2l-.26.153-.023-.006a4.555,4.555,0,0,0-.393-1.321c-.824-1.511.124-3.07-.849-4.576a2.07,2.07,0,0,0-1.983-.825.865.865,0,0,0-.517.256c-.334-.153-.5-.338-.462-.561a.821.821,0,0,0-.275-.585,1.852,1.852,0,0,0-.686-.112c-.934.44-.521.987-.76,1.482-1.563.983-.583,2.275-2.522,3.211-.185.223-.136.458-.211.686a1.085,1.085,0,0,0-.067.883,4.193,4.193,0,0,0,.777,1.542,2.656,2.656,0,0,0-.87-.593,2.577,2.577,0,0,0-.286-.051c0-.129.005-.258.007-.387L217.977,115a.762.762,0,0,1-.084-.286.789.789,0,0,0-.649-.56c-1.268-1.243-3.243-2.413-2.587-3.856a8.842,8.842,0,0,1-1.842-1.048c-.851-.5-.806-1.2-2.271-1.559-.405-.282.348-.692-.64-.916-1.127.212-.037.761-.987.995l-.007.025c-.417-.187-.835-.373-1.251-.561-.9-.341-.293-.99-1.616-1.244-.361.5.1.909.832,1.3.033.129.065.258.1.386.062.049.123.1.184.148-.063.01-.126.016-.189.027-.8.036-1.928-.342-2.259.282a.667.667,0,0,0,.08.06c-.233,0-.357.048-.345.16-.5.719.629,1.58-1.215,2.183a25.85,25.85,0,0,1,1.362,3.877,1.335,1.335,0,0,1,.1.192c-1.368-.783-.84-1.8-2.076-2.6-.136-.212-.27-.425-.405-.637.2-.294.316-.586-.213-.852-.361-.134-.677-.207-.722.084-.048.174-.095.351-.144.525.127.033.252.07.373.107-.376.271-.75.542-1.127.812-.314.116-.331.2-.122.258-.475.413-.063.824.148,1.234a1.927,1.927,0,0,0,1.236.818c.123.027.224.054.32.079a1.237,1.237,0,0,1-.06.7,2.015,2.015,0,0,0-.687.3,1,1,0,0,0-.362.29.68.68,0,0,0,.005.339,1.664,1.664,0,0,1-.188-.73c-.115-.462-.524-.9-.652-1.363a2.829,2.829,0,0,0-1.1-1.969,2.326,2.326,0,0,0-1.608-.661l-.6.372c-.96.1-1.417-.046-1.517-.437-.273-1.081-1.412-2.074-2.095-3.114-.117-.39-.236-.78-.352-1.17l.281-.2c-.941-.373.437-1.1-1.3-1.355-1.18.573-.236,1.1.26,1.637-.069.4-.492.811.249,1.184-.315,1.254,1.408,2.378,1.49,3.607a1.378,1.378,0,0,0,.22,2.087c.86.691.76,1.407.887,2.1.207,1.142-.4,2.337,1.895,3.269-.921,0-1.855.089-2.778.1l.288.051a1.545,1.545,0,0,1-.288-.051,34.96,34.96,0,0,0-7.048.024c-.217.018-.437.046-.659.074-.113.013-.228.025-.341.039l-.039,0a173.674,173.674,0,0,0-17.795,1.776c-.679.043-1.16.176-1.33.452a1.993,1.993,0,0,1-1.828.152c.117.232-.065.507.376.692,0,.008-.016.015-.019.024a.465.465,0,0,0,.106.318,3.161,3.161,0,0,0-1-.249c-2.1.555-4.684.939-4.9,2.159-1.153.251-3.72-.323-3.264.868a17.792,17.792,0,0,0-3.75.8c-.207.027-.411.058-.6.1-3.9.445-5.3,1.276-4.772,2.815a2.82,2.82,0,0,1,.033.9c-.862.426.011.9-.242,1.344.054.762.054.762,1.41.484.524-.025,1.055-.044,1.231-.294l1.287,0,2.691-.6a23.424,23.424,0,0,0,4.67-.395h0a16.075,16.075,0,0,0,3.685-.343l.285.012.242-.06a6.825,6.825,0,0,0,3.537-.064,26.446,26.446,0,0,0,3.671.17c.534.281,3.339.266.794.947-4.825,1.072-10.149,1.674-15.21,2.522l-.738-.254c.311-.316,1.71-.592.737-.947a2.519,2.519,0,0,0-2.208.382,12.1,12.1,0,0,1-1.181.368l-1.278.075c-.055.146-.108.293-.164.44l-1.111.057a9.235,9.235,0,0,0-4.16.806c-2.195.779-.995,1.958-3.1,2.73-2.288.839-3.648,1.954-1.292,3.2.371.2.782.5.139.693-1.535.451-1.091,1-.921,1.606.2.7-2.671,1.956-3.66,1.67-.811-.234-1.095-.385-1.478,0-.312.311.612.382,1.149.5.074.407-.218.858,1.279,1.023,1.095.122,1.387.479.45.763-1.966.6-1.778,1.4-1.621,2.207.163.854.281,1.571-1.975,2.224a6.464,6.464,0,0,0-2.826,1.569c-2.135,2.616-3.874,5.26-4.39,8.005-.279,1.476-3.05,3.151,1.87,4.284l.209.046,0,0,.047.008.026.006-.005,0h0l-.092-.035c4.23.205,7.985.72,12.653-.24a249.21,249.21,0,0,1,26.257-3.862c-2.19,1.241-1.964,1.866.457,2.844a7.311,7.311,0,0,0,2.676.159,42.8,42.8,0,0,0-6.456,1.917,77.132,77.132,0,0,1-13.434,4.7c-1.1.274-2.689.55-2.693,1.188,0,.62-.908.7-2.051.746-3.587.141-5.323.96-5.551,2.338-.634.584-.865,1.118,1.091,1.384,4.738.545,9.671.3,14.481.558.714.11.838-.214,1.314-.279,1.12-.356.318-1.124,1.895-1.384a5.474,5.474,0,0,0,.554-.136l2.95.5,1.057-.1a17.54,17.54,0,0,0,4.648.435c4.316-.072,8.619-.016,12.891.3,3.58.266,7.186.475,10.78.71,2.084.492,2.476.461,2.708-.214l.71-.391,1.8-.21-.312-.172a.675.675,0,0,1,.312.172c2.548.57,1.764-.615,2.817-.832a26.655,26.655,0,0,0,4.217-1.716c3.014-2.032,7.843-2.263,13-2.24,2.175.01,4.365.168,6.187-.5a10.356,10.356,0,0,1,2.744-.277c2.774-.124,4.221,1.047,6.828,1.087a1.322,1.322,0,0,0,.524.058l.179.09.27.043c.27.405,1.262.509,1.969.734.936-.085.87-.323.582-.594-.052-.027-.11-.05-.167-.074l.408-.292h0c.236.159.469.318.7.478l-.541.379c-.3.047-.434.135-.392.271,1.21.106.345.989,2.124.881.3.436,1.284.575,2.148.765l.551.161a4.316,4.316,0,0,0,2.9.814,1.513,1.513,0,0,0,.371-.083c.24.137.477.275.732.407.222.628,1.931.512,2.731.85-.244.178-.281.355.023.529-.333.106-.209.207.018.307.075.283.15.567.225.85-.253.233-1.037.41-.5.728-.175.4-.442.812.512,1.135,2.178.525,3.251,1.585,5.885,1.889l1.42,1.057c.444.083.767.075.792-.162q-.426-.38-.854-.76l-.643-.209-.056.006.014,0A.689.689,0,0,0,255.6,182c.894-.086,2.083.1,2.484-.435l-.338-.667a1.467,1.467,0,0,0,0-.6c.236.256.657.434,1.832.295l.535-.09a4.941,4.941,0,0,0,1.253.736c1.741,1.057,2.2,2.33,3.615,3.57,1.063-.843-1.459-1.478-.165-2.185l.927.265.6.062c.974.1,1.317-.623,2.467-.293.08-.2.159-.4.238-.594a1.75,1.75,0,0,0-.5-.127q-.741-1.164-1.484-2.328l.448-.171c.388.178.73.616,1.257.036l-.731-.67c.041-.015.083-.027.121-.044.142-.108.081-.2-.159-.269-.3-.62-1.482-1.236-.58-1.867a2.242,2.242,0,0,0,.932-2.772,2.344,2.344,0,0,1,.122-.4,6.714,6.714,0,0,1,.591.333c.731.551.017,1.309,1.594,1.738-.431.753.24,1.433.913,2.112.54-.761-.032-1.448-.892-2.117,1.068-.712-.377-1.368-.311-2.057a.723.723,0,0,0-.069-.442c.267.139.575.267.832.408,1.291,1.094,3.043,2.143,3.283,3.367.485,2.48,2.5,4.837,3.479,7.277.212.532.567,1.081,2.075,1.32-.512.531.18.734,1.393.8.721-.511-.969-.641-1.044-1.027a9.829,9.829,0,0,0-1.929-2.889,3.164,3.164,0,0,1,1.793.158,1.175,1.175,0,0,0-.194-.164c.1.052.176.106.194.164a17.388,17.388,0,0,0,1.087,1.627.864.864,0,0,0,1.377.012c-.958-.812-.463-1.759-1.534-2.561,1-.3.453-.668.08-.938-2.769-2.01-2.157-4.309-3.112-6.442a36.066,36.066,0,0,1-2.28-7.358c-.158-.753-.9-1.506-.848-2.269,1.907-.041,3.8-.047,5.7.057,1.277.139,2.494.6,3.888.112l.234.07.288-.016c2.673.933,5.721.413,8.652.348a4.179,4.179,0,0,0,2.728.131c.47.733,1.847.187,2.756.3a4.065,4.065,0,0,0,1.819-.123l1.426-.01c1.425.229,2.666,1.018,4.43.228.109-.146-.2-.256-.213-.391l.109-.047c-1.2-.1-2.228-.712-3.629-.184l-2.288-.482a3.237,3.237,0,0,0-1.833.068,2.609,2.609,0,0,0-1.754-.2.959.959,0,0,0-.234-.191l1.588-.3c-.06-.06-.117-.119-.175-.178a2.862,2.862,0,0,0-1.753-.016l-.736.151c-.093-.018-.18-.041-.28-.056-1.329-.163-2.708-.18-4.075-.221a.35.35,0,0,0,.016-.3,10.418,10.418,0,0,0,2.912-.182c-.324-.064-.5-.157-.552-.28l.547.279,1.433.132c.26-.638,1.332-.844,2.828-.824l.909-.055,1.068.208c-.031-.274-.171-.563.618-.73l.242.068.281.04,1.033.212.25.081.291.058c.674-.3,1.957-.128,2.525-.508.174.014.345.03.515.049a3.049,3.049,0,0,0,.377-.146,17.07,17.07,0,0,0,2.923.1c-.047-.126-.1-.252-.145-.378-.956-.286-1.737.143-2.634.1l.167-.046c-.435-.509-1.327-.6-2.5-.42a1.174,1.174,0,0,0-.152.062l-.733-.442-1.015-.289a1.09,1.09,0,0,0-.847.312l-.367-.254c.01-.006.023-.009.034-.014a.215.215,0,0,0,.024-.338c-.583-.154-1.3-.264-1.279-.614a3.086,3.086,0,0,1-.485-.135l-.314.022c0-.02.012-.039-.007-.061a2.057,2.057,0,0,1,.321.039c.042-.183.086-.366.13-.549a3.148,3.148,0,0,0,1.682-.256,4.568,4.568,0,0,0,2.784-.192,4.582,4.582,0,0,0-2.555.1,10.087,10.087,0,0,1-3.732-.469c.275-.261.267-.4.109-.484a26.885,26.885,0,0,1,5.684-.319,6.806,6.806,0,0,0,1.938.022,3.409,3.409,0,0,0,.849.2l.148-.1c.113.078.1.162-.172.258.126.025.251.052.377.081l-1.331.391c.066.418.8.428,1.586.4l.693-.386a7.457,7.457,0,0,0,2.894.043,8.244,8.244,0,0,0,3.076-.409c-.071-.1-.142-.2-.215-.307-1.1-.246-1.961-.267-2.205.279a6.07,6.07,0,0,0-1.757-.246c-.257-.117-.48-.239-.5-.393a20.306,20.306,0,0,0,6.484-.512,13.869,13.869,0,0,1,1.512-.4h0a5.678,5.678,0,0,0,2.394-.329,7.785,7.785,0,0,1-.8.01,18.56,18.56,0,0,0,2.423-.587l-.033,0,.033,0h0a24.632,24.632,0,0,0,6.629-1.193l-.05,0,.05,0h0a19.552,19.552,0,0,0,3.588-.508l-.058,0a10.432,10.432,0,0,0,2.774-.478l-.042,0,.048,0-.006,0a17.819,17.819,0,0,0,2.834-.372,1.988,1.988,0,0,0,1.1-.266l1.633-.163c1.245-.209,2.189-.52,2.4-1.085l-.175-.008c.973-.138,1.39-.345.553-.7a9.216,9.216,0,0,1-1.075-.044c-.476-.047-.955-.069-1.44-.07a.347.347,0,0,0,.126-.082c.016.007.026.015.044.022a2.038,2.038,0,0,0,.782,0c.538-.233.665-.589,1.446-.748l.046-.072.141-.048c-1.583-.557-1.868.19-2.673.414l-4.067.418q-.435.069-.5.252a.92.92,0,0,0,.043.09,2.231,2.231,0,0,1-.973.141l-.934-.263a14.346,14.346,0,0,0,2.146-.607c.237-.2,1.209-.2.948-.537a2.683,2.683,0,0,1,1.363-.322c.076.027.139.054.231.081a13.13,13.13,0,0,0,5.494-.8l2-.37c.849-.218,1.889-.264,2.742-.477l1.909-.34a23.684,23.684,0,0,0,4.985-1.023l-.012,0c1.482-.644,3.9-.707,5.383-1.352a1.193,1.193,0,0,0,.275-.2l1.038-.188.887-.558c.289-.267-.121-.372-.662-.447.343-.407,1.861-.409,1.989-.893l1.228-.807,1.229-.261.04-.115.178-.093a1.055,1.055,0,0,0-.222-.863c-.387-.178-.012-.34.064-.509q.529-.388,1.054-.777l-1.628-.176c-.793-.362.056-.518.575-.716l1.262-.049c.42-.245.836-.49,1.255-.736a1.3,1.3,0,0,0,.487.072l3-.62c-.454-.662-2.279-.325-3.165-.674l.053-.053c-.779-.038-1.494-.02-1.809.351l-.935-.235a3.884,3.884,0,0,1,1.915-.637c1.037-.128,1.655-.372,1.078-.838,1.293-.285,1.525-.883,2.427-1.284l-1.637.156c-.416.114-.913.174-1.308.3l-.555-.146c.062-.019.127-.037.186-.062.24-.2.553-.393.559-.627l.066-.108.148-.1a5.6,5.6,0,0,0-3.037.3c-.858.472,1.465.213,1.121.633a2.191,2.191,0,0,0,.242.03,1.573,1.573,0,0,1-.242-.03.827.827,0,0,0-.362.1c-.628-.035-1.365.252-1.882-.1-.094-.114-.188-.228-.28-.343.033-.112.062-.225.094-.337l.038,0a43.521,43.521,0,0,0,7.588-1.941,2.589,2.589,0,0,0,1.511-.486c.958-.21.94-.748,2-.922a2.769,2.769,0,0,0,1.473-.449,1.12,1.12,0,0,0,.74-.413c-.029-.027-.056-.047-.085-.072l2.248-.607c.042.012.075.027.121.037,1.957-.019,2.7-.787,4.236-1.065a2.487,2.487,0,0,0,1.475-.469c.7-.244,1.35-.5,1.074-.918a1.654,1.654,0,0,0-.225-.081l.045-.027a3.63,3.63,0,0,0,1.4-.1c.645-.436,1.967-.635,2.448-1.145C392.212,123.738,391.163,123.941,390.445,123.955Zm-25.725,2.71.011.018C364.643,126.664,364.679,126.668,364.72,126.665Zm-64.728,3.221-.17.04C299.793,129.9,299.817,129.881,299.992,129.887Zm10.37,21.878c-.058-.009-.114-.012-.174-.018a.532.532,0,0,1,.017-.107C310.259,151.681,310.3,151.721,310.362,151.764Zm-158.337-.56a.283.283,0,0,1,.026-.015l.008-.006h0l-.011.006-.026.017Zm151.31-24.8v.006h0a.017.017,0,0,1,0-.01h0s-.005-.006-.007-.009h.007s0,0,0,.008ZM184.984,157.445a3.921,3.921,0,0,1,.794.022,7.476,7.476,0,0,0,.76,0,4.054,4.054,0,0,0,.685-.144c.3-.1.585-.2.87-.308a27.118,27.118,0,0,1,3.717-.465c2.98-.2,5.5-.941,8.416-1.217-3.016.522-5.893,1.174-9.094,1.526-.968.156-1.933.314-2.871.5-.684.122-1.334.272-2.039.376-.942.125-1.841.289-2.742.453-.07.013-.144.021-.217.034C183.836,157.967,184.407,157.705,184.984,157.445Zm84,12.255h0l-.008-.012.019.006-.01.005Zm-103.1-33.848h0l0,0h0l.006,0Zm-24.542,18.192c-.006.006-.009.012-.015.019s-.006-.014-.008-.021Zm214.728-35.467-.025-.008.034-.022A.049.049,0,0,1,356.076,118.576Zm-.027-.007ZM159.031,159.392c-.346,0-.7-.01-1.076-.039A4.57,4.57,0,0,1,159.031,159.392ZM261.9,175.361l.011-.008a.142.142,0,0,1,.007.015l-.016,0Zm97.857-35.426a.108.108,0,0,0,0-.019l.041.009C359.781,139.929,359.764,139.932,359.752,139.935ZM319.589,125.3l0,0c-.031,0-.059.007-.089.01a.089.089,0,0,0-.016-.012Zm-42.449,2.761a.212.212,0,0,0,0,.05l-3.312.03c.124.381.25.762.374,1.143-.285.62-2.557.145-2.8.789a5.22,5.22,0,0,1-.79.059l-1.622,1.092c-.05,0-.1,0-.147,0-.512-.014-1.2.143-1.768.177a2.643,2.643,0,0,0,.281-.043c.653-.5,2-.923,1.64-1.519.287-.067.566-.138.824-.223,1.557-.482,1.926-1.437,4.18-1.635.3-.054.584-.112.858-.175.262-.025.527-.048.793-.064C276.233,127.8,277.267,127.629,277.14,128.065Zm-20.551-21.848v0l.012,0Zm-33.919,8.324h0ZM159.144,134.73h0l-.006,0h0l-.027,0,.028-.014Zm101.063,44.048-.017.006,0,0Zm-.017.006c.041.008.071.01.109.017l-.1.035C260.2,178.819,260.2,178.8,260.19,178.784Zm18.6-17.553a.5.5,0,0,1-.094.118.307.307,0,0,0-.291-.107l.057-.015a.259.259,0,0,0,0-.152c.786-.037,1.581.053,2.366,0a.125.125,0,0,0,.049.1A5.565,5.565,0,0,0,278.787,161.232Zm17.173-1.265-.205-.042.052-.039.121.02Zm-4.246-2.369.009.046-2.214-.625-1.018.707c-.825.3-1.6-.345-2.425-.023a2.873,2.873,0,0,1-.509-.1l-2.185.361a2.663,2.663,0,0,1-.433-.061l-1.5.194a7.787,7.787,0,0,1,1.4-.192l1.75-.477c.06.012.119.026.182.037a3.674,3.674,0,0,0,1.614-.1l.315-.2c.064,0,.129,0,.194,0a1.708,1.708,0,0,0,.79-.194c.078-.01.157-.017.235-.027a2.57,2.57,0,0,0,1.163-.026c.088,0,.178,0,.258-.009.143.012.286.027.434.053a10.442,10.442,0,0,0,2.351-.026l.164.069a2.864,2.864,0,0,0,.993.5,4.638,4.638,0,0,0,.577.235C293.14,157.723,292.435,157.62,291.714,157.6Zm-15.285-30.312a2.825,2.825,0,0,0,.284-.163q.13.043.27.077Zm-26.636-17.961a.187.187,0,0,0,.013-.016.073.073,0,0,1,0,.014Zm-18.9,3.066h0l.006,0Zm-9.431,7.33c-.025.081-.042.162-.064.242-.384.006-.777.039-1.171.067-.412-.039-.825-.07-1.239-.1a2.008,2.008,0,0,1,.2-.141c1.277.315,1.385-.228,1.976-.417l-.079-.13a1.533,1.533,0,0,1,.193-.068c.022-.015.038-.032.058-.048A.746.746,0,0,1,221.458,119.722ZM204.8,115.514v.015l-.027-.007Zm-41.925,10.078h0Zm119.49,36.053-.006-.023.03.007C282.381,161.635,282.371,161.64,282.364,161.645Zm-80.78-44.632a3.389,3.389,0,0,0,2.4.891,4.614,4.614,0,0,0,1.266-.28c-.1.182-.04.364.239.548q.046.277.093.553l-1.05.543a1.531,1.531,0,0,0-1.054.378l-1.415-.007-.023-.006,0-.006a23.707,23.707,0,0,0-.839-2.632,2.536,2.536,0,0,0-.254-.722A3.629,3.629,0,0,0,201.584,117.013Zm-35.509,6.225c.112-.01.211-.025.316-.039l-.05.04a5.518,5.518,0,0,0,.855.278,6.218,6.218,0,0,0-1.111.1,1.981,1.981,0,0,0-.411-.473A2.093,2.093,0,0,0,166.075,123.238ZM246.368,170a2.384,2.384,0,0,1-.555-1.193,1.133,1.133,0,0,0-.186-.3,1.731,1.731,0,0,1-.5-1.409,2.144,2.144,0,0,0,.66-.145h0q.651.829,1.3,1.659l2.129,2.695c-.131.278.494.539.458.814-1.339.026-.85.51-.977.839.13.027.248.046.36.062.255.9,1.587,1.684,2.135,2.551.778,1,.6,2.119,2.286,3.014l-.244.176c-1.068-.7-.934-1.7-3.1-2.133.048-.027.1-.052.142-.08.544-.469.12-.922-.154-1.375A33,33,0,0,0,246.368,170Zm32.736,11.4.029.013-.036,0ZM290.742,162.6l-.008,0a4.079,4.079,0,0,0-1.209-.178c-.48.042-.741.162-.81.351l-.061.042a2.1,2.1,0,0,0-.731-.214,3.662,3.662,0,0,0-.919.066,5.852,5.852,0,0,0-.971.339c-.206-.19-.876-.32-.527-.581l.443-.4-1.373-.357-.462-.219.559-.456,4.779-.017c-.5.671-.159,1.032,1.848.779.6.116,1.017.274.831.568-.134.05-.275.1-.421.141A1.451,1.451,0,0,0,290.742,162.6Zm13.583-1.282a.147.147,0,0,0,.015-.009l-.064,0h0c.026-.006.045-.015.068-.022a.281.281,0,0,0,0,.041Zm58.865-19.349c.125-.05.239-.1.343-.148a.37.37,0,0,0,.093.073Z" transform="translate(-22.891 -77.185)" fill="#ff6d00" fill-rule="evenodd"/><g transform="matrix(1, 0, 0, 1, -31.09, -1)" filter="url(#a)"><path d="M-336.157-91.024a4.422,4.422,0,0,1-3.869-4.2,4.5,4.5,0,0,1,4.06-4.36A1.45,1.45,0,0,1-334.9-97.1a.834.834,0,0,1-1.226.136c-.654-.653.654-1.8-.654-1.8-1.226,0-2.86,1.635-2.779,3.542a3.872,3.872,0,0,0,3.569,3.814c5.831.708,10.818-4.8,15.586-14.087.681-1.363,1.417-2.779,1.989-4.087-3.624,4.36-5.7,5.5-5.995,4.06-.163-.763.082-2.044,2.67-6.022a4.314,4.314,0,0,1,2.262-1.825c.273-.109.3.163.164.382-1.662,2.56-3.569,6.13-3.406,6.866.736-.246,1.88-1.036,4.687-4.278.327-.763.762-1.717.981-2.289a1.847,1.847,0,0,1,1.28-.927c.328-.082.518.218,0,1.472-5.433,13.443-12.872,21.226-19.12,21.226A7.243,7.243,0,0,1-336.157-91.024Zm-176.455-1.144c-1.989-.219,3.379-9.564,7.248-14.224a.45.45,0,0,1,.082-.653,3.867,3.867,0,0,1,1.172-.736c4.251-9.427,9.727-16.893,10.817-16.022,1.363,1.063-3.324,8.719-6.866,11.608-.545,1.144-1.744,3.76-2.561,5.585.055.082.055.136.164.136,2.18-.054,5.259-1.471,7.929-4.468.163-.218.163.218,0,.382-3.515,3.76-6.567,4.577-8.419,4.632-4,8.743-7.861,13.765-9.488,13.764A.748.748,0,0,1-512.612-92.168Zm0-.437c.927.627,4.2-5.041,7.9-13.406a.952.952,0,0,1-.382-.164C-509.369-100.887-513.565-93.367-512.612-92.6Zm12.779-20.3c5.014-4.631,7.03-10.163,6.485-10.489a.256.256,0,0,0-.122-.029C-494.519-123.422-497.426-117.925-499.833-112.9Zm-32.888,7.221c-2.942,2.344-4.9,2.18-5.2,1.363-.572-1.58,1.88-4.632,5.667-2.67a60.748,60.748,0,0,0,4.9-7.057c-2.86,1.607-5.694,2.016-6.43.545-.872-1.689,1.961-4.986,3.27-5.667.136-.082.653-.054.518.055-2.588,2.1-2.806,3.814-2.479,4.6.6,1.5,2.453,1.145,5.558-.273,4.251-7.193,10.054-12.179,12.615-11.716,2.643.491-3.76,6.676-9.782,10.626a63.638,63.638,0,0,1-7.574,9.238c2.453,1.661,6.131,7.221,9.155,7.166,1.717-.109,2.916-2.071,2.507-2.834-.382-.735-2.4-.491-3.079,1.58-.164.491-.3-.354-.028-.926.627-1.336,2.889-1.689,3.325-.817.654,1.281-.545,3.978-3.815,3.978C-526.781-98.49-529.969-102.986-532.721-105.683Zm-3.133-1.172a2.332,2.332,0,0,0-1.8,2.208c.191.844,1.743.926,4.5-1.445a3.071,3.071,0,0,0-2.086-.81A4.332,4.332,0,0,0-535.854-106.855Zm12.343-9.836c5.45-3.623,11.008-9.237,8.828-9.319h-.041C-517.09-126.01-520.206-121.432-523.511-116.691Zm116.865,13.216c-2.126-.246-.191-5.531,1.77-9.129,4.142-7.574,8.965-13.16,11.09-13.3,1.853-.109.627,3.161-.327,4.8-2.235,3.841-5.259,6.593-9.782,9.972a15.817,15.817,0,0,0-1.825,5.777c0,.545.136.844.436.844.6,0,2.4-1.39,3.542-3.487a1.727,1.727,0,0,1-1.363-1.662,1.781,1.781,0,0,1,1.418-1.8,1.282,1.282,0,0,1,1.035,1.39,2.355,2.355,0,0,1-.245,1.035,2.011,2.011,0,0,0,1.417.464,6.381,6.381,0,0,0,4.441-2.452c.054-.054.245.3.136.41a8.557,8.557,0,0,1-5.749,2.751,3.766,3.766,0,0,1-.763-.054c-1.337,2.49-3.683,4.451-5.071,4.451A1.344,1.344,0,0,1-406.646-103.476Zm4.986-7.139a2.275,2.275,0,0,0,.544,1.362,1.534,1.534,0,0,0,.191-.653c0-.273-.136-.9-.544-.9A.172.172,0,0,0-401.66-110.615Zm7.874-14.85c-1.661.163-5.667,5.721-9.7,13.514a31.165,31.165,0,0,0,9.156-9.264c.883-1.365,1.713-4.254.607-4.254Zm-35.122,17.956c-1.58,2.207-2.834,3.243-4.033,2.97-1.035-.246-1.39-1.281-.49-3.188,1.5-3.161,4.278-5.722,5.94-5.722.817,0,.872.708.763,1.58a84.449,84.449,0,0,1,5.013-8.474,5,5,0,0,1,1.744-1.417c.382-.109,1.008.082.654.545-3.161,4.332-10.517,16.648-8.12,16.648a4.058,4.058,0,0,0,2.152-.927c.436-.327.164.218.028.327a5.486,5.486,0,0,1-2.888,1.2C-429.562-103.966-429.671-105.683-428.908-107.509Zm1.2-5.5c-.872.219-2.834,2.616-3.869,5.068-.872,2.017-.491,2.643.054,2.643.654,0,1.744-1.39,3.161-3.243l1.145-2.343c.253-.91.459-2.149-.3-2.149A.9.9,0,0,0-427.709-113.013Zm39.372,2.044c-1.58.054-2.152-.572-1.989-1.417a1.807,1.807,0,0,1,1.88-1.39c.79.081.382,1.525-.463,2.4a3.638,3.638,0,0,0,1.77-.137c.409-.163.6.11.273.572a18.43,18.43,0,0,0-2.7,4.55c-.327.9-.136,1.744.626,1.635,1.8-.246,5.477-2.97,7.575-6.1.081-.136.136.382.054.49-3.215,4.06-6.7,6.158-8.719,6.349q-.114.011-.219.011C-392.179-104.01-391.755-106.893-388.337-110.969Zm14.06,3.733c-1.471,1.634-2.779,2.507-3.733,2.534-1.008.027-1.77-1.144-.544-3.3,1.607-2.806,4.414-4.768,6.1-4.768.354,0,1.035,0,1.062.762a5.467,5.467,0,0,1,1.662-1.2c.191-.081.436.164.355.328-1.445,2.479-3.6,5.749-3.815,7.221-.136.762.191,1.09.79,1.035,1.036-.109,3.651-1.5,7.956-6.322.082-.109.246.218.028.464-4.088,4.3-6.73,6.1-8.148,6.376a3.032,3.032,0,0,1-.586.061C-374.634-104.042-375.126-105.39-374.277-107.236Zm-3.161.9c-.109.409.191.817.736.6a9.707,9.707,0,0,0,3.541-3.515c.6-1.008,1.172-1.907,1.418-2.262.054-.762-.246-.844-.681-.844C-373.95-112.359-376.81-108.9-377.437-106.337Zm-85.639-.9c-1.471,1.634-2.779,2.507-3.733,2.534-1.008.027-1.77-1.144-.544-3.3,1.607-2.806,4.414-4.768,6.1-4.768.354,0,1.035,0,1.062.762a5.467,5.467,0,0,1,1.662-1.2c.191-.081.436.164.355.328-1.444,2.479-3.6,5.749-3.815,7.221-.136.762.191,1.09.79,1.035,1.036-.109,3.651-1.5,7.956-6.322.082-.109.246.218.028.464-4.088,4.3-6.73,6.1-8.148,6.376a3.032,3.032,0,0,1-.586.061C-463.433-104.042-463.927-105.39-463.076-107.236Zm-3.161.9c-.109.409.191.817.736.6a9.707,9.707,0,0,0,3.542-3.515c.6-1.008,1.172-1.907,1.417-2.262.054-.762-.246-.844-.681-.844C-462.749-112.359-465.61-108.9-466.237-106.337Zm129.017.762c.055-1.444,2.1-4.251,4.442-6.294a2.788,2.788,0,0,1-2.289.191c.082,2.48-4.714,6.648-8.093,7.057-2.18.273-3.434-1.09-2.1-4.2,1.281-2.916,3.6-4.959,5.014-5.45.817-.3,1.335.136,1.253.762-.163,1.254-1.607,2.7-4.387,3.9-1.09,2.343-.436,4.469,1.226,4.2,3.161-.517,6.921-4.2,6.757-6.376a1.784,1.784,0,0,1-.463-.328c-.327-.327.491-2.642,1.063-1.281a1.657,1.657,0,0,0,2.7.709c.136-.137.409.136.3.272-1.744,2.126-3.515,4.987-3.6,6.621-.081,1.771,3.052,1.036,8.23-5.123.054-.081.218-.027-.11.355-3.665,4.51-6.868,6.425-8.594,6.425A1.236,1.236,0,0,1-337.22-105.575Zm-2.752-8.392a12.64,12.64,0,0,0-3.133,3.814c1.444-.273,3.678-2.125,3.623-3.243-.021-.444-.191-.609-.355-.609A.274.274,0,0,0-339.972-113.966ZM-450.6-104.7c-.817-1.553,1.008-5.259,3.869-7.792,1.935-1.717,3.515-1.417,3.46-.028,5.613-10.136,6.975-13.188,8.5-13.215.354,0,.735.545.572.763a71.148,71.148,0,0,0-7.139,11.716c-2.4,4.85-3.733,8.582-2.208,8.174,1.036-.272,3.134-1.035,7.221-5.94.109.028.136.137-.054.382-3.569,4.441-6.322,6.022-7.358,6.213-1.961.382-2.316-.6-1.607-3.216-1.173,1.718-3.167,3.467-4.4,3.467A.909.909,0,0,1-450.6-104.7Zm1.88-1.308c.082.382.327.654.708.491.927-.355,2.561-2.289,3.27-3.869.491-1.145.6-1.226,1.2-2.7a.917.917,0,0,0-.436-1.227.6.6,0,0,0-.117-.011C-445.55-113.323-449.273-108.687-448.717-106.01Zm-42.942-.845c.708-4.087,4.931-7.3,6.021-7.6.709-.191,1.036.272.872.817a6.97,6.97,0,0,1-4.2,3.9,8.261,8.261,0,0,0-.954,3.27c0,.79.3,1.254,1.008,1.254a5.468,5.468,0,0,0,2.7-1.172c.109-.082.272.109.081.3a6.366,6.366,0,0,1-3.732,1.771C-490.9-104.321-491.958-105.138-491.658-106.855Zm6.185-7.193c-.708.218-2.071,1.5-3.3,3.814a6.983,6.983,0,0,0,3.623-3.351c.066-.287.115-.5-.114-.5A.784.784,0,0,0-485.474-114.048Zm-31.77,8.229c.163-1.363,1.308-3.352,2.452-5.341a3.822,3.822,0,0,1,1.308-1.444c.627-.3,1.2-.081,1.09.164-.354.9-2.7,3.9-3.16,6.512-.355,1.962,3.433,0,7.683-4.987.191-.245.136.355-.082.572-2.343,2.425-5.395,5.613-8.011,5.886a1.652,1.652,0,0,1-.183.01A1.121,1.121,0,0,1-517.244-105.819Zm155.228,1.008a15.686,15.686,0,0,1,2.262-6.512,6.187,6.187,0,0,1,2.615-1.961c.355-.137.654.109.545.245a15.819,15.819,0,0,0-3.434,7.139,18.416,18.416,0,0,0,4.8-4.85,1.112,1.112,0,0,1,.137-1.335c.3-.328,1.2-.463,1.308.081.491,2.235,2.1,2.7,4.686,1.227.382-.218.055.382,0,.409-2.289,1.2-4.686,1.145-5.8.027a28.178,28.178,0,0,1-5.722,5.4,2.514,2.514,0,0,1-1.1.4C-361.912-104.549-362.034-104.62-362.015-104.811Zm53.7-5.531c-.218-.054-.164-.844,0-.844a56.294,56.294,0,0,0,7.03-.164c.3-.054-.273,1.117-.681,1.145s-1.207.055-2.092.055A32.3,32.3,0,0,1-308.31-110.343Zm-243.565,0c-.218-.054-.164-.844,0-.844a56.292,56.292,0,0,0,7.03-.164c.3-.054-.273,1.117-.681,1.145s-1.207.055-2.091.055A32.322,32.322,0,0,1-551.875-110.343Zm39.754-6.511c.164-.572.845-1.309,1.417-1.009.981.545.273,1.989-.68,2.126a.791.791,0,0,1-.112.008C-512-115.729-512.3-116.245-512.122-116.854Zm178.086-16.972q-5.75-2.851-7.13-3.45a21.7,21.7,0,0,0-8.1-2.254v-.46h.6a2.83,2.83,0,0,0,2.047-.828,2.929,2.929,0,0,0,.9-2.07v-25.484a2.957,2.957,0,0,0-.9-2.047,2.787,2.787,0,0,0-2.047-.851h-.6v-.46h10.075v.46h-.6a2.866,2.866,0,0,0-2.07.851,2.754,2.754,0,0,0-.874,2.047v26.542a6.583,6.583,0,0,0,.092,1.265,2.275,2.275,0,0,0,.6.989,3.789,3.789,0,0,0,1.517.92q9.8,3.4,14.7,4.622a35.7,35.7,0,0,0,8.419,1.219,21.975,21.975,0,0,0,7.751-1.61l.23.368a19.813,19.813,0,0,1-11.317,3.864Q-326.583-130.192-334.036-133.826Zm-82.454-5.681a7.52,7.52,0,0,1-3.52-1.909,14.357,14.357,0,0,1-.138-2.484,12.381,12.381,0,0,1,.69-3.91h.414q-.046.5-.046,1.012a6.658,6.658,0,0,0,1.7,4.669,5.813,5.813,0,0,0,4.508,1.863,6.684,6.684,0,0,0,4.761-1.748,5.77,5.77,0,0,0,1.863-4.393,5.582,5.582,0,0,0-1.795-4.3l-8.832-8.188a7.31,7.31,0,0,1-2.484-5.566,7.867,7.867,0,0,1,2.185-5.589,7.728,7.728,0,0,1,5.911-2.323,19.656,19.656,0,0,1,3.956.46h1.794v5.658h-.414a4.322,4.322,0,0,0-1.495-3.45,5.674,5.674,0,0,0-3.84-1.288,5.382,5.382,0,0,0-3.933,1.563,5.266,5.266,0,0,0-1.588,3.911,5.334,5.334,0,0,0,1.84,4.048l9.062,8.372a7.487,7.487,0,0,1,2.3,5.8,8.234,8.234,0,0,1-2.346,6.049,8.407,8.407,0,0,1-6.256,2.369A16.362,16.362,0,0,1-416.49-139.507Zm-127.259.621-12.927-29.486a4.736,4.736,0,0,0-1.77-2.185,4.224,4.224,0,0,0-2.277-.713h-.368v-.46h10.35v.46h-.414A1.792,1.792,0,0,0-553-169.982a2.047,2.047,0,0,0-.092.644,2.5,2.5,0,0,0,.23.92l9.614,24.1,11.407-27.278q2.715-6.394,6.809-9.154A12.576,12.576,0,0,1-521.3-182.4a13.8,13.8,0,0,1,3.5-.6h1.7v.46a12.143,12.143,0,0,0-4.047.851,12.057,12.057,0,0,0-3.1,1.749,12.92,12.92,0,0,0-2.37,2.622,28.947,28.947,0,0,0-1.77,2.783q-.621,1.15-1.449,2.944l-12.788,27.968a16.829,16.829,0,0,0-1.7,4.738Zm245.686-.644.046-.46h.552a2.832,2.832,0,0,0,2.048-.828,2.882,2.882,0,0,0,.9-2.024v-25.576a2.88,2.88,0,0,0-.9-2.024,2.832,2.832,0,0,0-2.048-.828h-.552l-.046-.46h9.154q4.738,0,7.36,2.092a6.789,6.789,0,0,1,2.622,5.589,7.038,7.038,0,0,1-1.471,4.577,7,7,0,0,1-3.588,2.415,9.133,9.133,0,0,1,5.75,2.991,9.032,9.032,0,0,1,2.116,6.141,7.5,7.5,0,0,1-2.829,6.049q-2.83,2.346-7.889,2.346Zm6.532-1.7h4.6a7.444,7.444,0,0,0,5.428-1.886,7.18,7.18,0,0,0,1.932-5.382,8.458,8.458,0,0,0-.667-3.473,6.638,6.638,0,0,0-1.679-2.369q-2.668-2.209-8-2.208h-.046v-.414q6.071,0,7.313-4.508a8.548,8.548,0,0,0,.276-2.255,6.479,6.479,0,0,0-1.725-4.829,6.81,6.81,0,0,0-4.991-1.7h-2.438Zm-19.09,1.7v-.46h.414a1.723,1.723,0,0,0,1.449-.621,1.954,1.954,0,0,0,.482-1.174,3.472,3.472,0,0,0-.184-1.1l-2.944-7.82h-12.42l-3.082,7.866a3.413,3.413,0,0,0-.184,1.081,1.928,1.928,0,0,0,.483,1.15,1.721,1.721,0,0,0,1.449.621h.414v.46h-9.247v-.46h.414a4.024,4.024,0,0,0,2.255-.736,5.286,5.286,0,0,0,1.794-2.162l10.4-24.748a16.823,16.823,0,0,0,1.7-4.738h.414l12.328,29.487a4.97,4.97,0,0,0,1.748,2.162,4.091,4.091,0,0,0,2.3.736h.368v.46Zm-12.65-12.559h11.316l-5.52-14.765Zm-53.084,12.559v-.46h.6a2.794,2.794,0,0,0,2.048-.851,2.912,2.912,0,0,0,.9-2v-11.914h-18.814v11.914a2.684,2.684,0,0,0,.874,2.024,2.911,2.911,0,0,0,2.07.828h.6v.46H-398.16v-.46h.6a2.83,2.83,0,0,0,2.047-.828,2.878,2.878,0,0,0,.9-2.024v-25.576a2.877,2.877,0,0,0-.9-2.024,2.83,2.83,0,0,0-2.047-.828h-.6v-.46h10.075v.46h-.6a2.83,2.83,0,0,0-2.047.828,2.877,2.877,0,0,0-.9,2.024v12.282h18.814v-12.282a2.791,2.791,0,0,0-1.471-2.484,3.077,3.077,0,0,0-1.472-.368h-.6v-.46h10.074v.46h-.6a2.791,2.791,0,0,0-2.048.851,2.96,2.96,0,0,0-.9,2.047v25.53a2.881,2.881,0,0,0,.9,2.024,2.833,2.833,0,0,0,2.048.828h.6v.46Zm-59.248,0v-.46h.6a2.794,2.794,0,0,0,2.048-.851,2.962,2.962,0,0,0,.9-2.047v-25.53a2.88,2.88,0,0,0-.9-2.024,2.833,2.833,0,0,0-2.048-.828h-.6v-.46h10.074v.46h-.6a2.833,2.833,0,0,0-2.048.828,2.88,2.88,0,0,0-.9,2.024v25.53a2.752,2.752,0,0,0,.874,2.047,2.868,2.868,0,0,0,2.07.851h.6v.46Zm-36.2,0v-.46h.6a2.791,2.791,0,0,0,2.047-.851,2.959,2.959,0,0,0,.9-2.047v-25.761a2.351,2.351,0,0,0-.9-1.863,3.079,3.079,0,0,0-2.047-.759h-.553l-.046-.46h15.594q7.36,0,11.937,4.439A15.507,15.507,0,0,1-439.7-155.63a15.507,15.507,0,0,1-4.577,11.66q-4.576,4.44-11.937,4.44Zm6.532-1.381h9.062a12.693,12.693,0,0,0,6.831-1.84,12.286,12.286,0,0,0,4.6-5.175,17.307,17.307,0,0,0,1.634-7.7q0-6.624-3.612-10.672a12.063,12.063,0,0,0-9.453-4.048h-9.062Zm-31.693,1.381v-.46h.6a2.794,2.794,0,0,0,2.047-.851,2.962,2.962,0,0,0,.9-2.047v-25.484a2.96,2.96,0,0,0-.9-2.047,2.791,2.791,0,0,0-2.047-.851h-.6v-.46h10.074v.46h-.6a2.8,2.8,0,0,0-2.531,1.426,2.823,2.823,0,0,0-.414,1.472v27.416h6.578a7.847,7.847,0,0,0,5.2-1.517,11.25,11.25,0,0,0,2.99-4.508h.46l-2.668,7.452Zm-12.559,0v-.46h.414a1.722,1.722,0,0,0,1.449-.621,1.95,1.95,0,0,0,.483-1.174,3.448,3.448,0,0,0-.185-1.1l-2.944-7.82h-12.42l-3.082,7.866a3.413,3.413,0,0,0-.185,1.081,1.928,1.928,0,0,0,.483,1.15,1.723,1.723,0,0,0,1.449.621h.414v.46h-9.246v-.46h.414a4.022,4.022,0,0,0,2.254-.736,5.288,5.288,0,0,0,1.795-2.162l10.4-24.748a16.853,16.853,0,0,0,1.7-4.738h.414l12.328,29.487a4.97,4.97,0,0,0,1.748,2.162,4.088,4.088,0,0,0,2.3.736h.368v.46Zm-12.65-12.559h11.316l-5.52-14.765Z" transform="translate(681.27 196.53)" fill="#fff" stroke="rgba(0,0,0,0)" stroke-miterlimit="10" stroke-width="1"/></g><g transform="translate(-31.092 9.75)"><g transform="translate(34.457 1.198)"><path d="M235.868,201.553l-6.389,4.317,2.833,5.02-24.054,41.663H163.122l-4.461,7.726h54.058l28.514-49.389Z" transform="translate(-155.69 -161.502)" fill="#ff6d00"/><path d="M154.549,93.735h11.886V86.009H150.089Z" transform="translate(-150.089 -86.009)" fill="#ff6d00"/></g><g transform="translate(35.598 93.712)"><rect width="15.182" height="1.783" transform="translate(0 13.311) rotate(-61.255)" fill="#ff6d00"/></g><g transform="translate(95.153 0)"><rect width="1.783" height="20.123" transform="matrix(0.866, -0.5, 0.5, 0.866, 0, 0.891)" fill="#ff6d00"/></g><path d="M81.428,89.871,79.2,86.009,50.684,135.4,79.2,184.786l2.23-3.863L55.144,135.4Z" transform="translate(-50.684 -84.81)" fill="#ff6d00"/><path d="M238.914,206.559l-.515-.3-23.968,41.514H175.393l-.343.594h39.382L223.17,263.5l.515-.3-8.738-15.134Z" transform="translate(-131.941 -163.38)" fill="#ff6d00"/></g><g transform="translate(-25.559 7.086)"><g transform="translate(66.342)"><rect width="17.701" height="1.783" fill="#fff"/></g><g transform="translate(60.696 19.611)"><path d="M260.3,140.527l-4.216-7.3H241.748v-1.783h15.368l4.731,8.194Z" transform="translate(-241.748 -131.441)" fill="#fff"/></g><g transform="translate(0 7.725)"><g transform="translate(0 55.049)"><rect width="31.533" height="1.783" transform="translate(0 27.645) rotate(-61.246)" fill="#fff"/></g><g transform="translate(12.399 67.82)"><rect width="19.716" height="1.783" transform="matrix(0.481, -0.877, 0.877, 0.481, 0, 17.285)" fill="#fff"/></g><g transform="translate(1.9)"><path d="M76.585,142.678l24.054-41.663-2.23-3.863L72.125,142.678l15.788,27.346,2.173-3.961Z" transform="translate(-72.125 -97.152)" fill="#fff"/><path d="M135.136,322.438,127.1,308.514l-2.173,3.962,7.982,13.825Z" transform="translate(-106.622 -235.249)" fill="#fff"/></g></g><g transform="translate(28.689 84.718)"><rect width="19.716" height="1.783" transform="translate(0 17.288) rotate(-61.264)" fill="#fff"/></g><path d="M281.2,91.188l-2.99-5.179H258.893v7.726h14.854l2.99,5.179,4.77,8.262,7.2-2.853Z" transform="translate(-192.253 -82.146)" fill="#fff"/></g><g transform="translate(-5.055 -1)"><path d="M214.525,296.267c.02.078.04.156.058.234l1.64-.442-.041-.141Z" transform="translate(-183.769 -211.208)" fill="#ff6d00" fill-rule="evenodd"/><path d="M150.536,186.06a.3.3,0,0,0-.026-.284c-.258-.32-.516.025-.778.02a.785.785,0,0,0,.016.2C150.024,185.9,150.262,186.331,150.536,186.06Z" transform="translate(-141.435 -139.156)" fill="#ff6d00" fill-rule="evenodd"/><path d="M307.221,256.026c-.355.089-.14.384-.026.594l.29-.1C307.627,256.223,307.544,255.944,307.221,256.026Z" transform="translate(-244.206 -185.135)" fill="#ff6d00" fill-rule="evenodd"/><path d="M308.123,269.787c-.288-.278-.55-.13-.809.052-.215.076-.661-.249-.613.245.037.375.373.184.6.1.1-.036.2-.067.3-.1h0l.711-.123a.754.754,0,0,0,.77-.2C308.732,269.7,308.426,269.383,308.123,269.787Z" transform="translate(-243.992 -194.003)" fill="#ff6d00" fill-rule="evenodd"/><path d="M127.7,268.561c-.006.175.124.252.3.208.347-.089.161-.285.1-.455C127.836,268.177,127.706,268.295,127.7,268.561Z" transform="translate(-127.038 -193.135)" fill="#ff6d00" fill-rule="evenodd"/><path d="M306.025,259.688c.445-.024,1.1.062,1.1-.5,0-.461-.7,0-1.016-.273-.041-.035-.194.059-.3.094l-.308-.172a.394.394,0,0,1-.155.154.625.625,0,0,1-.074.17c-.211.025-.449.012-.477.315l.543.043A.888.888,0,0,0,306.025,259.688Z" transform="translate(-242.753 -186.982)" fill="#ff6d00" fill-rule="evenodd"/><path d="M204.343,300.929h0a.876.876,0,0,0-.833.33c-.524-.245-.969-.241-1.252.364-.134.288-.216.582.119.751a1.045,1.045,0,0,0,1.354-.2c.048-.053.089-.114.133-.172,1.068.4.67-.421.719-.868.136-.18.7-.133.408-.5C204.725,300.309,204.6,300.9,204.343,300.929Z" transform="translate(-175.678 -214.227)" fill="#ff6d00" fill-rule="evenodd"/><path d="M158.444,191.923h0v0h0Z" transform="translate(-147.127 -143.26)" fill="#ff6d00" fill-rule="evenodd"/><path d="M157.392,185.935a.327.327,0,0,0-.432-.028c-.208.1-.554,0-.576.351-.006.095.221.3.247.288C156.919,186.389,157.463,186.529,157.392,185.935Z" transform="translate(-145.782 -139.286)" fill="#ff6d00" fill-rule="evenodd"/><path d="M296.077,263.446c-.025-.118-.048-.235-.072-.353a.6.6,0,0,1-.153-.1.3.3,0,0,0-.26-.191c-.31.046-.55.16-.52.531l.86.242Z" transform="translate(-236.395 -189.575)" fill="#ff6d00" fill-rule="evenodd"/><path d="M295.034,264.328l-.023-.007.023.017S295.035,264.332,295.034,264.328Z" transform="translate(-236.356 -190.564)" fill="#ff6d00" fill-rule="evenodd"/><path d="M300.67,255.124a.639.639,0,0,0,.615.178C301.2,254.815,300.988,254.8,300.67,255.124Z" transform="translate(-240.054 -184.41)" fill="#ff6d00" fill-rule="evenodd"/><path d="M248.489,70.1c-.038.289.038.5.37.53l.216.064-.049.035c-.009.015.007.041.05.077a.128.128,0,0,0,.155,0l.185-.328a.216.216,0,0,0-.064-.077l.01-.017c.359-.545.111-1.016-.182-1.482a.4.4,0,0,1-.152-.1l.389-1.112c-.019-.027-.041-.052-.062-.078a.2.2,0,0,0,.025-.025.647.647,0,0,0,.095-.69c-.011-.008-.022-.013-.034-.02.364-.223.125-.39-.1-.558.078-.157.158-.313.236-.469-.024-.094-.048-.189-.072-.284a1.736,1.736,0,0,0-.264-1.876.117.117,0,0,0-.081-.168c-.056.529-.342,1.055-.027,1.59-.454.359-.1.867-.236,1.286-.035.224-.451.341-.182.651-.351.325-.294.752-.289,1.166.012.164.024.328.036.492C248.074,69.178,248.72,69.629,248.489,70.1Z" transform="translate(-205.858 -59.367)" fill="#ff6d00" fill-rule="evenodd"/><path d="M195.218,129.309l-.007-.087.078-.039a8.053,8.053,0,0,0-.271-1.9C194.736,127.995,194.455,128.7,195.218,129.309Z" transform="translate(-170.833 -101.029)" fill="#ff6d00" fill-rule="evenodd"/><path d="M207.575,66.39c.353-.319.227-.746.259-1.138-.023-.3-.2-.38-.471-.334a1.56,1.56,0,0,0-.15,1.059C207.181,66.248,207.216,66.462,207.575,66.39Z" transform="translate(-178.976 -60.272)" fill="#ff6d00" fill-rule="evenodd"/><path d="M199.972,107.4a1.215,1.215,0,0,1,.185.046,2.461,2.461,0,0,0-.221-1.531c-.052-.225.046-.591-.315-.563-.2.015-.33.28-.155.527A2.614,2.614,0,0,0,199.972,107.4Z" transform="translate(-173.876 -86.7)" fill="#ff6d00" fill-rule="evenodd"/><path d="M203.038,113.9l.144-.351c.188-.4.16-.728-.287-.929l.033-.025-.015,0-.014.023c-.248.139-.137.407-.2.614-.438-.026-.227.312-.281.5a1.614,1.614,0,0,1,.126.132,2,2,0,0,0,.54,1.458C203.349,114.842,203.1,114.375,203.038,113.9Z" transform="translate(-175.857 -91.43)" fill="#ff6d00" fill-rule="evenodd"/><path d="M204.34,120.467s0,.009-.007.014l.015-.006Z" transform="translate(-177.11 -96.574)" fill="#ff6d00" fill-rule="evenodd"/><path d="M313.7,246.349c-.359.014-.748-.042-.933.39l1.011-.1a1.966,1.966,0,0,0,1.532-.688l-.671.023Z" transform="translate(-247.96 -178.563)" fill="#ff6d00" fill-rule="evenodd"/><path d="M190.292,119.07l.021.008.014-.018Z" transform="translate(-167.936 -95.655)" fill="#ff6d00" fill-rule="evenodd"/><path d="M203.743,96.153c.408.028.227-.431.269-.685a1.061,1.061,0,0,0-.03-.282,4.122,4.122,0,0,0-.114-2.953.513.513,0,0,0-.308.467,1.359,1.359,0,0,0-.01.222c-.227.186.025.534-.12.748,0,.118-.014.241.132.293.143.478-.393.893-.131,1.383C203.22,95.741,203.325,96.124,203.743,96.153Z" transform="translate(-176.452 -78.126)" fill="#ff6d00" fill-rule="evenodd"/><path d="M225.442,87.669a.832.832,0,0,0,.35.713.528.528,0,0,0,.088.014.772.772,0,0,0,.313.578.763.763,0,0,0-.157.658c.273.172.364.028.391-.226l.3-.545a.723.723,0,0,0-.128-.12l-.259-.082c-.05-.119-.1-.238-.151-.358a.388.388,0,0,0-.01-.483l-.12-.58c0-.192-.057-.342-.28-.365l-.222.552A.392.392,0,0,0,225.442,87.669Z" transform="translate(-190.902 -74.626)" fill="#ff6d00" fill-rule="evenodd"/><path d="M248.087,91.3c.1.123.176.334.289.353.34.057.174-.27.215-.406a1.05,1.05,0,0,0-.171-.922l-.4-.515c-.122.3-.382.59-.053.914Q248.031,91.009,248.087,91.3Z" transform="translate(-205.518 -76.542)" fill="#ff6d00" fill-rule="evenodd"/><path d="M190.327,119.013c-.005-.008-.008-.016-.013-.024-.008.011-.013.022-.021.033Z" transform="translate(-167.937 -95.608)" fill="#ff6d00" fill-rule="evenodd"/><path d="M251.19,98.915a.539.539,0,0,0,.043.4c.277-.014.734.635.784-.214q-.137-.346-.276-.692C251.367,98.368,251.3,98.665,251.19,98.915Z" transform="translate(-207.712 -82.16)" fill="#ff6d00" fill-rule="evenodd"/><path d="M199.729,117.43c-.243-.012-.454.317-.72.067l-.216.321C199.372,118.333,199.632,118.079,199.729,117.43Z" transform="translate(-173.49 -94.59)" fill="#ff6d00" fill-rule="evenodd"/><path d="M271.777,319.271c-.139-.137-.078-.574-.478-.316.291.293-.144.859.374,1.107C271.932,319.787,271.711,319.514,271.777,319.271Z" transform="translate(-220.864 -226.208)" fill="#ff6d00" fill-rule="evenodd"/><path d="M209.265,56.646c.026-.255.151-.516-.054-.754-.106-.057-.188-.168-.33-.144a1.086,1.086,0,0,0-.13.913Z" transform="translate(-179.961 -54.286)" fill="#ff6d00" fill-rule="evenodd"/><path d="M272.528,324.721c0,.008.167.009.174-.011.151-.466.01-.874-.436-1.488C272.38,323.888,272.449,324.306,272.528,324.721Z" transform="translate(-221.495 -229.047)" fill="#ff6d00" fill-rule="evenodd"/><path d="M208.5,61.473c-.021-.146-.042-.292-.063-.439l-.364-.514a1.549,1.549,0,0,0-.085.91C208.153,61.5,208.316,61.609,208.5,61.473Z" transform="translate(-179.475 -57.406)" fill="#ff6d00" fill-rule="evenodd"/><path d="M260.743,152.473c.145-.458.132-.738-.254-1.015A.836.836,0,0,0,260.743,152.473Z" transform="translate(-213.757 -116.823)" fill="#ff6d00" fill-rule="evenodd"/><path d="M250.011,84.777c-.116.034-.2.137-.317.164-.022.167-.044.334-.067.5.08.233.163.464.476.453C250.077,85.522,250.215,85.135,250.011,84.777Z" transform="translate(-206.704 -73.255)" fill="#ff6d00" fill-rule="evenodd"/><path d="M281.353,330.07a.154.154,0,0,0,.213-.06,1.186,1.186,0,0,0-.261-.974C280.936,329.472,281.121,329.773,281.353,330.07Z" transform="translate(-227.264 -232.846)" fill="#ff6d00" fill-rule="evenodd"/><path d="M220.74,105.561a.477.477,0,0,0-.39-.059c-.082.175-.494-.12-.411.289.368-.007.165.653.626.538a.78.78,0,0,0,.324-.484.124.124,0,0,1,.146.063.454.454,0,0,0,.283-.516c-.1-.331-.122-.718-.527-.836v-.008l-.01,0a1,1,0,0,0-.02-1.571c-.021-.01-.042-.018-.063-.026a2.77,2.77,0,0,0,.2-.331,1.179,1.179,0,0,0,.134-.266,8.553,8.553,0,0,0-.011-1.316.793.793,0,0,0-.29-.642c.345-.289.448-.608.1-.986a.4.4,0,0,0-.178-.562l0,0a.476.476,0,0,0,.167-.162,1.257,1.257,0,0,0-.467-1.406.59.59,0,0,0-.594-.078c-.109.51.2.911.356,1.351a.627.627,0,0,0,.034.976c-.091.292-.268.595.106.827h0a8.995,8.995,0,0,0-.061,2.7q.014.488.029.974c-.392.435-.246.834.079,1.222a.461.461,0,0,0,.3-.172c.017-.023.031-.048.046-.071l.266.378-.113.22A.562.562,0,0,0,220.74,105.561Z" transform="translate(-187.167 -81.336)" fill="#ff6d00" fill-rule="evenodd"/><path d="M368.937,198.6c.9-.077.9-.077,1-.511l-.958.341Q368.814,198.478,368.937,198.6Z" transform="translate(-284.623 -147.291)" fill="#ff6d00" fill-rule="evenodd"/><path d="M206.14,77.534c.283-.314.209-.688.228-1.041.177-.233-.266-.336-.117-.563a.37.37,0,0,0-.179-.087c-.572.238-.16.576-.088.878C206.009,76.992,205.871,77.3,206.14,77.534Z" transform="translate(-178.051 -67.418)" fill="#ff6d00" fill-rule="evenodd"/><path d="M204.333,120.5l.012.008s0-.009,0-.013Z" transform="translate(-177.11 -96.59)" fill="#ff6d00" fill-rule="evenodd"/><path d="M339.222,229.9c-.009.065.086.144.132.216.184-.15.531-.118.532-.568C339.557,229.5,339.277,229.507,339.222,229.9Z" transform="translate(-265.242 -167.831)" fill="#ff6d00" fill-rule="evenodd"/><path d="M248.579,102.195c.768-.243.332-.6.105-.941.212-.265-.036-.488-.073-.731l.3-.5a.767.767,0,0,0-.44-.672c-.105.217-.211.434-.315.651,0,.083-.01.167-.014.251.159.339.2.744.519,1A.823.823,0,0,0,248.579,102.195Z" transform="translate(-205.735 -82.777)" fill="#ff6d00" fill-rule="evenodd"/><path d="M203.417,110.821c-.258-.24-.378.009-.508.183-.006.228.131.324.327.367C203.351,111.2,203.739,111.121,203.417,110.821Z" transform="translate(-176.179 -90.207)" fill="#ff6d00" fill-rule="evenodd"/><path d="M238.1,114.826l.025-.061c.022-.15.044-.3.066-.452q-.189-.544-.379-1.088c-.155.351-.026.679-.211.97a.508.508,0,0,0,.124.539C237.917,114.494,237.971,114.813,238.1,114.826Z" transform="translate(-198.825 -91.842)" fill="#ff6d00" fill-rule="evenodd"/><path d="M209.126,52.769c.238-.089.044-.44.311-.511a1.732,1.732,0,0,1,.093-.173c-.1-.234-.2-.473-.481-.547C209.129,51.945,208.731,52.381,209.126,52.769Z" transform="translate(-180.125 -51.538)" fill="#ff6d00" fill-rule="evenodd"/><path d="M217.774,59.283c.032.173.194.272.325.389a.361.361,0,0,0-.136.069,1.073,1.073,0,0,0,.109.7c-.024.022-.049.042-.072.067-.106.189-.224.376-.08.6q.045.268.09.535c.075.567.317.5.632.169a3.371,3.371,0,0,1-.06-1.507c-.014-.152-.027-.3-.041-.457l.173-.6a.4.4,0,0,0-.271-.289l-.017,0a.221.221,0,0,0-.012-.14.357.357,0,0,0,.262-.256l.007.033.057.014.259.514.37-.424a.269.269,0,0,0-.032-.35l.03-.049-.016-.087-.238-.392c0-.144-.008-.29-.012-.434-.174-.132-.323-.329-.591-.24,0,.074-.025.159.006.2.155.214.324.417.489.625l-.331.563c-.486-.065-.478-.519-.646-.835l-.277.435a1.287,1.287,0,0,0,.142.458c-.183.077-.221.272-.3.432-.009.069-.017.139-.025.207C217.662,59.375,217.727,59.372,217.774,59.283Z" transform="translate(-185.755 -55.185)" fill="#ff6d00" fill-rule="evenodd"/><path d="M188.887,101.863a.869.869,0,0,0-.374-.725C188.654,101.351,188.364,101.754,188.887,101.863Z" transform="translate(-166.774 -83.945)" fill="#ff6d00" fill-rule="evenodd"/><path d="M230.435,96.154h0c.008-.005.013-.011.022-.016Z" transform="translate(-194.164 -80.679)" fill="#ff6d00" fill-rule="evenodd"/><path d="M203,107.153c.081.043.181.09.225-.055s.1-.324-.083-.422c-.054-.029-.154.028-.194.036C202.818,106.914,202.822,107.057,203,107.153Z" transform="translate(-176.147 -87.558)" fill="#ff6d00" fill-rule="evenodd"/><path d="M241.956,98.529l.166-.113c.063-.326.087-.638-.287-.809C241.93,97.907,241.682,98.252,241.956,98.529Z" transform="translate(-201.604 -81.638)" fill="#ff6d00" fill-rule="evenodd"/><path d="M189.113,106.963c-.172.539.071,1.069.037,1.606.015.256.03.513.045.769a2.175,2.175,0,0,0,.308,1.362c.324-.432.135-.9.075-1.359.07-.2.391-.336.16-.615.427-.718-.009-1.361-.172-2.028.011-.16-.073-.431-.137-.392C189.208,106.437,188.979,106.631,189.113,106.963Z" transform="translate(-167.125 -87.319)" fill="#ff6d00" fill-rule="evenodd"/><path d="M280.721,324.329a1.459,1.459,0,0,0-.228-.829c-.225.15-.06.421-.186.6l.318.417Z" transform="translate(-226.749 -229.23)" fill="#ff6d00" fill-rule="evenodd"/><path d="M206.546,71.788h0l.079.038c.079-.172.158-.344.236-.515-.222-.059-.194-.5-.545-.362l-.131.4q.008.327.016.654Z" transform="translate(-178.32 -64.204)" fill="#ff6d00" fill-rule="evenodd"/><path d="M206.373,117.241c-.12.074-.15.183,0,.277.089.055.234.209.288-.03a.515.515,0,0,0-.025-.375C206.478,116.913,206.46,117.152,206.373,117.241Z" transform="translate(-178.376 -94.332)" fill="#ff6d00" fill-rule="evenodd"/><path d="M195.129,125.467a1.013,1.013,0,0,0-.212-.819C194.788,124.973,194.612,125.31,195.129,125.467Z" transform="translate(-170.869 -99.306)" fill="#ff6d00" fill-rule="evenodd"/><path d="M284.268,343.327c-.1-.33-.426-.627-.144-1.012.025-.187-.192-.229-.226-.38-.05-.031-.1-.063-.145-.1-.226-.736-.452-1.472-.763-2.485a4.817,4.817,0,0,0,.351,2.727c.091.5.037,1.072.641,1.328.084.209.166.5.452.281C284.586,343.576,284.432,343.4,284.268,343.327Z" transform="translate(-228.436 -239.588)" fill="#ff6d00" fill-rule="evenodd"/><path d="M189.64,104.637l.066-.04c-.008-.032-.015-.063-.022-.095l-.095.022C189.606,104.562,189.622,104.6,189.64,104.637Z" transform="translate(-167.477 -86.143)" fill="#ff6d00" fill-rule="evenodd"/><path d="M269.985,309.072a.149.149,0,0,1-.062.077c-.147-.1-.261-.078-.329.1l-.233.487a.744.744,0,0,1,.086.094l.457.085.341.651a3.208,3.208,0,0,0,.448,1.645l.25-.05a4.149,4.149,0,0,0-.485-1.672A1.606,1.606,0,0,0,269.985,309.072Z" transform="translate(-219.597 -219.803)" fill="#ff6d00" fill-rule="evenodd"/><path d="M270.324,305.194a1.236,1.236,0,0,0-.138-1.489C270.035,304.22,269.829,304.74,270.324,305.194Z" transform="translate(-220.023 -216.296)" fill="#ff6d00" fill-rule="evenodd"/><path d="M269.295,300.847c.336-.445.013-.744-.235-1.059C268.715,300.235,268.946,300.554,269.295,300.847Z" transform="translate(-219.289 -213.737)" fill="#ff6d00" fill-rule="evenodd"/><path d="M364.659,195.045v0l.051.006Z" transform="translate(-281.861 -145.301)" fill="#ff6d00" fill-rule="evenodd"/><path d="M235.646,127.942c.181.105.333.346.58.134a.177.177,0,0,0,.035-.167.344.344,0,0,0-.494-.133Z" transform="translate(-197.569 -101.317)" fill="#ff6d00" fill-rule="evenodd"/><path d="M216.882,77.669a.405.405,0,0,0-.446.1c-.376.723-.855,1.445.192,2.053.171.1.25.357.371.541l.338.541q0,.225,0,.451a.806.806,0,0,0,.121.1c.119.306.042.71.436.88-.257-.385.192-.723.15-1.094.009-.016.018-.032.028-.047a.763.763,0,0,0-.024-.553c.138-.19.234-.413.584-.391.25.017.385-.2.1-.409a.521.521,0,0,0,.2-.408,1.1,1.1,0,0,0-.16-.51q.1-.984.2-1.968c.111-.182.222-.365.334-.546.207-.153.149-.36.116-.562-.166-.042-.245,0-.293.084a.893.893,0,0,0-.222-.379.46.46,0,0,0-.235-.092.748.748,0,0,0-.135-.448l-.044.007a.57.57,0,0,0-.173-.651c-.062.318-.33.552-.2.9l-.247.521a.851.851,0,0,0-.22.855c-.238-.1-.066-.4-.158-.567.011-.009.021-.02.033-.028.065-.141.058-.262-.1-.341-.95-.877-.7.44-1.091.594.007.2.015.4-.194.51l.208.681a.664.664,0,0,0,.45-.323l0,0A1.241,1.241,0,0,1,216.882,77.669Z" transform="translate(-184.728 -66.457)" fill="#ff6d00" fill-rule="evenodd"/><path d="M266.956,301.813c.163.28,0,.759.518.856a1.468,1.468,0,0,0-.354-1.121C267.065,301.636,267.011,301.724,266.956,301.813Z" transform="translate(-218.026 -214.887)" fill="#ff6d00" fill-rule="evenodd"/><path d="M237.833,134.265c.3-.209.425-.422.117-.824C237.723,133.724,237.6,133.956,237.833,134.265Z" transform="translate(-198.916 -105.051)" fill="#ff6d00" fill-rule="evenodd"/><path d="M240.657,132.075c-.095.513-.086.851.3,1.079A1.642,1.642,0,0,0,240.657,132.075Z" transform="translate(-200.81 -104.158)" fill="#ff6d00" fill-rule="evenodd"/><path d="M241.634,135.2l-.016-.011s0,.01,0,.014Z" transform="translate(-201.47 -106.193)" fill="#ff6d00" fill-rule="evenodd"/><path d="M223.977,98.848c-.171.015-.362-.016-.438.2,0,.309.253.6.079.921l.661-.481C224.233,99.249,224.234,98.989,223.977,98.848Z" transform="translate(-189.659 -82.449)" fill="#ff6d00" fill-rule="evenodd"/><path d="M224.907,117.412c.154-.083.315-.254.189-.374-.3-.288-.649-.1-.979.058C224.415,117.141,224.756,117.008,224.907,117.412Z" transform="translate(-190.036 -94.235)" fill="#ff6d00" fill-rule="evenodd"/><path d="M224.36,111.105c-.022.024.06.144.095.219a1.3,1.3,0,0,0,.313-.19c.077-.084.009-.163-.147-.21A1.211,1.211,0,0,0,224.36,111.105Z" transform="translate(-190.193 -90.339)" fill="#ff6d00" fill-rule="evenodd"/><path d="M284.532,153.079l.043,0a1.422,1.422,0,0,1-.332.861c.693-.326,1.324.377,2.012.117q-.038-.3-.075-.606c-.035-.455-.481-.334-.756-.452a1.241,1.241,0,0,0,.679-.387.582.582,0,0,0,.462.432c.227-.318.838-.353.763-.894a.887.887,0,0,0,.094-.127.678.678,0,0,0-.031-.294c.33-.123.92.061.749-.656l-1.143.053c-.06-.081-.124-.159-.19-.236a.356.356,0,0,0,.328-.286,1.031,1.031,0,0,0,.092.054,1.05,1.05,0,0,0,.841-.06.906.906,0,0,0,.341-.526c-.575-.641-1.068-.082-1.588.106-.24.059-.5.088-.561.4a2.618,2.618,0,0,0-1.171,1.324c-.384.246-.931.232-1.155.73C284.072,152.863,284.216,153.087,284.532,153.079Z" transform="translate(-229.119 -115.72)" fill="#ff6d00" fill-rule="evenodd"/><path d="M292.908,157.69c.591-.227.671-.8.885-1.288l-.309-.238c-.607.079-.959.3-.65.91a1.678,1.678,0,0,0-1.5,1.084.207.207,0,0,0-.195.057c-.088.3-.179.609-.268.913.332.389.621.189.9-.067q-.007-.289-.016-.578C292.323,158.475,292.612,158.077,292.908,157.69Z" transform="translate(-233.653 -119.897)" fill="#ff6d00" fill-rule="evenodd"/><path d="M273.13,144.645c-.129-.322-.408-.275-.67-.274-.316.264-.684.5-.511,1.009C272.556,145.488,272.724,144.868,273.13,144.645Z" transform="translate(-221.259 -112.19)" fill="#ff6d00" fill-rule="evenodd"/><path d="M271.989,147.3h0c0-.006,0-.011,0-.018l-.026,0c0,.01,0,.019,0,.028l.028-.006Z" transform="translate(-221.294 -114.09)" fill="#ff6d00" fill-rule="evenodd"/><path d="M268.757,148.447l.869-.176q-.03-.457-.058-.914l-.555.112a.839.839,0,0,0-.327.164c-.2.225-.494.4-.352.779Z" transform="translate(-218.902 -114.143)" fill="#ff6d00" fill-rule="evenodd"/><path d="M299.092,146.711c-.471.5-1.11.442-1.336,1.012h.656C298.662,147.485,299.057,147.351,299.092,146.711Z" transform="translate(-238.15 -113.721)" fill="#ff6d00" fill-rule="evenodd"/><path d="M281.934,160.218a.738.738,0,0,1,.134-.864.682.682,0,0,0-.94.636C281.122,160.43,281.647,160.156,281.934,160.218Z" transform="translate(-227.286 -121.952)" fill="#ff6d00" fill-rule="evenodd"/><path d="M280.022,164.175c-.459-.171-1.04-.63-.982.417C279.484,164.73,279.972,164.97,280.022,164.175Z" transform="translate(-225.918 -124.969)" fill="#ff6d00" fill-rule="evenodd"/><path d="M215.615,120.093c-.294,0-.62-.076-.789.219a.492.492,0,0,0-.1-.075l-1.716.855a11.024,11.024,0,0,1-2.587,1.978.224.224,0,0,0-.108.187c-.663.064-.989.673-1.521.948a1.234,1.234,0,0,0-.907.392.267.267,0,0,1-.165-.078l.069-.191c.458-.86,1.583-.978,2.044-1.835l.427-.22c.1-.2.232-.4.108-.64a9.171,9.171,0,0,1,1.887-1.912.122.122,0,0,0,.16.023c.331-.028.408-.343.6-.528l.219-.34.038-.162a.892.892,0,0,0,.225-.022c.408-.165.456-.584.64-.907.031-.066.061-.132.09-.2a.129.129,0,0,0,.064-.183l-.513.171c-.31-.026-.594-.292-.926-.1q-.108.171-.214.342a.974.974,0,0,0-1.006.113c-.617-.186-.98.188-1.323.6-1.48.817-2.821,1.871-4.369,2.571-.275-.006-.462.1-.5.4l0,0a.526.526,0,0,0-.135-.053l-.373.441c-.4-.308-.567.188-.862.243-.553.1-.238-.158-.14-.329.364-.207.127-.552.19-.828l.833-.419c.217.026.259-.175.37-.286l.374-.7-.17-.424c.15-.209.154-.557.527-.555l.493-.137q.049-.458.1-.915c.254-.216.517.264.77-.01l.057-.2.425-.7c.172.069.24-.081.341-.16,0-.328-.315-.384-.486-.565a.608.608,0,0,0,.074-.087,1.73,1.73,0,0,1,.395-.516l.03-.077a.385.385,0,0,0,.038-.332c.154-.1.055-.314.114-.457.027.031.071.022.133-.03.838.021.955-.784,1.39-1.223a.18.18,0,0,0-.04-.167c-.487-.252-.775.236-1.173.325-.384-.223-.51.086-.668.326l-.615-.142c-.323-.486-.509-.024-.742.107a5.6,5.6,0,0,0-3.068,1.163.122.122,0,0,0-.118.071.931.931,0,0,0-.716.156c-1.269.59-2.762.667-3.847,1.679l-.792-.215c-.426-.589-.624-.19-.826.191-.681.506-1.6.623-2.179,1.294h0l-1.517.981c-.326-.109-.506.26-.8.244a2.223,2.223,0,0,0-2.093.992.826.826,0,0,0-.13-.236c-.016-.026-.033-.054-.049-.082l.132-.265s0-.009,0-.014c.051.035.1.075.162.06.862-.581-.029-.878-.212-1.289.159-.6-.158-.793-.679-.715a3.453,3.453,0,0,0-1.91.794c-.136.2-.437-.617-.527.094-.019.155-.325.3-.52.4-1.407.773-2.909,1.35-4.348,2.057a1.306,1.306,0,0,0,.082-.37.965.965,0,0,0-.892.788q-.374.2-.737.426l-1,.256c-.02,0-.038,0-.059-.01-.318-1.242-.935.2-1.352-.15q-.053-.483-.1-.966c0-.2.008-.408.012-.613-.587.137-1.016-.217-1.482-.454.377-.6.731-1.223,1.068-1.861a.762.762,0,0,0,.1-.877c-.164-.3.341-.548.084-.865-.456.16-.183.551-.279.82-.34-.364-.64-.858-1.228-.333-.114.1-.315.124-.346-.062-.212-1.265-.877-.3-1.346-.283-.243.036-.523-.023-.68.247l-1.3.491a.164.164,0,0,0-.131.029c-.04-.3-.212-.348-.505-.031a2.619,2.619,0,0,1-.706-2.258c-.1-3.482-.719-6.959-.158-10.45q.091-.306.181-.611h0l.565-.335-.612-.359-.214.324a.409.409,0,0,0-.129.151q-.2-1.878-.4-3.757c.145-.315-.083-.537-.2-.789.045-.2-.071-.31-.215-.408-.225.182-.1.419-.1.636a.572.572,0,0,0-.031.462,1.414,1.414,0,0,0-.425.634c0,.013-.005.027-.008.04h0c-.164-.211-.059-.645-.433-.65-.215,0-.12.327-.222.481l.009.012-.569.141-.175-.1c-.139.4-.666.495-.727.951.006.036.011.073.018.109a1.318,1.318,0,0,1,.122.436c.009.032.017.064.025.1-.259.991.131,2.041-.232,3.022a2.973,2.973,0,0,0-.19,1.189,2.816,2.816,0,0,0,.116.822.615.615,0,0,0,.122.119.336.336,0,0,0-.082.211c-.027-.2-.148-.39-.178-.59a1.086,1.086,0,0,0-.192-.338.248.248,0,0,1-.051-.017l.216-.271-.222-.377c.042-.228-.155-.467.029-.689-.164-.161-.1-.336-.031-.511l-.026-.089-.08,0c.009-.007.015-.014.025-.02a.662.662,0,0,0-.013-.85.27.27,0,0,0,.081-.215c-.426-.072-.359-.489-.521-.746q-.008-.559-.017-1.119a.231.231,0,0,0,.061-.011.517.517,0,0,0,.19-.165.51.51,0,0,0,.05-.248,1.445,1.445,0,0,0-.387-.5.27.27,0,0,0-.059-.009l.017-.009c.081.02.119-.012.112-.1L166.72,100c-.315.146-.173.438-.215.672h0l-.16.134a.512.512,0,0,0,.03.172c-.2-.151-.371-.342-.658-.307-.277.525-.59,1.05-.023,1.588v-.014c.252-.132.256-.438.434-.622.084-.105-.05-.322.18-.352l.184.1c.155.41-.093.882.193,1.273l-.339.547-.532-.566a.523.523,0,0,0-.207.726.27.27,0,0,1,.1.128.962.962,0,0,0-.082.9c-.044.209.081.46-.157.619.024.093.047.186.071.28-.166.338.125.723-.107,1.054.194.121.28-.32.494-.095-.092.319.075.49.344.6q.1.211.194.423c-.176.455-.212.847.422.937-.083.338-.628.629-.105,1.03.008.271.181.359.417.376.013-.018.02-.035.032-.052v.018a.5.5,0,0,1-.241.528c0,1.187.276,2.361.174,3.553h0a.478.478,0,0,0-.446.251l-.094-.238c.4-.5-.219-.6-.347-.885.087-.16.191-.317.059-.5l-.255.366c.039.318-.425.382-.359.713l-.129.179a26.476,26.476,0,0,1-1.888-6.31l-.441-.311q-.053-.363-.106-.726c.047-.305-.131-.623.05-.921l.194-.338c.147-.3.671.287.7-.3.037-.21.073-.421.111-.631q-.255-1.547-.51-3.092a.675.675,0,0,0-.275-.69c-.26-.168-.083-.645-.5-.7l-.319-.269q-.082-.273-.165-.546l.216-.31c.2.032.264-.122.343-.255l-.343-.213q-.068-.284-.136-.568l-.338-.2a.854.854,0,0,0-.114-.978c-.44.279-.347.624-.162.98a.43.43,0,0,0-.139.084.45.45,0,0,0-.108.317.308.308,0,0,0-.209.024l-.171-.5c.006-.212.093-.468-.187-.563-.181-.061-.271.108-.35.246l.25.4q-.046.3-.092.594c.058.2.116.4.173.593-.12.272.093.412.219.585a.608.608,0,0,0-.076.065.488.488,0,0,0-.06.2c-.214.063-.212.271-.226.469l.393.213a1.237,1.237,0,0,0,.128.239.49.49,0,0,0,.39.116c-.314.333-.087.824-.223,1.209a.5.5,0,0,1-.086.105.285.285,0,0,1-.035-.2c.028-.333-.17-.531-.542-.459.014.31.233.574.252.883a.611.611,0,0,0-.187.181c-.26,1.282.4,2.393.667,3.576.034.152.215.25.37.323a.324.324,0,0,0,.1,0l0,0a.142.142,0,0,0-.054.117,1.017,1.017,0,0,0-.188.067c-.106.142-.239.28-.146.445a.9.9,0,0,0-.094.055,4.316,4.316,0,0,0-.217,1.053,9.225,9.225,0,0,1-.128,1.8,1.645,1.645,0,0,0,0,.234.377.377,0,0,1-.382.22l-.272-.232a.845.845,0,0,0-.124-1c.147-.353.119-.608-.346-.62.031.166.062.332.093.5l-.118.371.316.666a5.773,5.773,0,0,0,.04,2.187q-.007.431-.014.862a1.578,1.578,0,0,1,.12,1.037l-.088.132-.008,0a8.9,8.9,0,0,0-.133-1.137c-.28-1.3.042-2.643-.288-3.939-.128-.328-.2-.71-.673-.71a.366.366,0,0,0-.175.221.651.651,0,0,1-.157-.483,1.362,1.362,0,0,0-.093-.5.314.314,0,0,0-.233-.1c-.317.379-.177.85-.258,1.276-.53.846-.2,1.958-.856,2.765a3.165,3.165,0,0,0-.072.59,2.267,2.267,0,0,0-.023.76,6.867,6.867,0,0,0,.264,1.328,1.615,1.615,0,0,0-.3-.511.436.436,0,0,0-.1-.044c0-.111,0-.222,0-.333l-.381-.559a1.489,1.489,0,0,1-.028-.246.645.645,0,0,0-.22-.482c-.431-1.07-1.1-2.077-.878-3.32a4.224,4.224,0,0,1-.625-.9c-.289-.429-.273-1.033-.771-1.342-.138-.243.118-.6-.217-.788-.382.182-.012.655-.335.857l0,.021c-.141-.161-.284-.321-.425-.483-.307-.293-.1-.852-.548-1.071a1.231,1.231,0,0,0,.283,1.117c.011.111.022.222.033.332l.062.128c-.021.008-.043.014-.064.024-.271.031-.654-.294-.767.243a.458.458,0,0,0,.027.052c-.079,0-.121.041-.117.138-.171.619.214,1.36-.412,1.88.23,1.1.31,2.225.462,3.338.015.055.023.111.033.166-.464-.674-.285-1.553-.7-2.241-.046-.182-.092-.366-.138-.548a.773.773,0,0,0-.072-.733c-.122-.115-.23-.178-.245.072-.016.15-.032.3-.049.452.043.029.086.06.127.093q-.191.35-.382.7c-.106.1-.112.171-.041.222a1.665,1.665,0,0,0,.05,1.063,1.146,1.146,0,0,0,.419.7c.042.023.076.046.109.068a2.631,2.631,0,0,1-.02.6.7.7,0,0,0-.233.254.743.743,0,0,0-.123.25,1.465,1.465,0,0,0,0,.292,3.319,3.319,0,0,1-.064-.628c-.039-.4-.178-.777-.221-1.174a4.32,4.32,0,0,0-.372-1.7c-.12-.249-.224-.513-.546-.57l-.2.32c-.326.085-.481-.04-.515-.376a17.9,17.9,0,0,0-.711-2.681q-.06-.5-.12-1.007l.1-.176c-.319-.321.148-.951-.44-1.167-.4.493-.08.947.088,1.409-.024.345-.167.7.085,1.019-.107,1.08.478,2.048.506,3.105a2.53,2.53,0,0,0,.075,1.8,4.606,4.606,0,0,1,.3,1.811c.07.983-.137,2.012.643,2.815-.313,0-.629.076-.943.09l.1.044a.263.263,0,0,1-.1-.044,4.743,4.743,0,0,0-2.392.02,2.205,2.205,0,0,0-.224.064c-.038.011-.077.021-.116.033l-.013,0a25.212,25.212,0,0,0-6.039,1.529.5.5,0,0,0-.451.389c-.176.19-.341.429-.62.131.04.2-.022.436.128.6,0,.007-.006.013-.007.021a.865.865,0,0,0,.036.273.661.661,0,0,0-.34-.215c-.713.478-1.59.808-1.662,1.859-.391.216-1.262-.278-1.108.748-.526.035-.845.464-1.273.689a1.068,1.068,0,0,0-.2.087,1.929,1.929,0,0,0-1.619,2.424,6.112,6.112,0,0,1,.011.773c-.293.367,0,.776-.082,1.157.018.656.018.656.479.417.178-.022.358-.038.418-.253l.437,0,.913-.518a3.36,3.36,0,0,0,1.585-.34h0c.423-.073.883.011,1.251-.295l.1.011.082-.052c.408.143.818.336,1.2-.055.395.226.834.066,1.246.147.181.242,1.133.229.269.815a50.211,50.211,0,0,1-5.162,2.172l-.251-.218c.106-.272.58-.51.25-.815s-.54.1-.749.329a2.925,2.925,0,0,1-.4.317l-.434.064c-.019.126-.037.252-.056.379l-.377.049c-.631-.076-.955.283-1.412.694-.745.67-.338,1.685-1.051,2.35a1.911,1.911,0,0,0-.438,2.755c.126.169.266.433.047.6-.521.388-.37.862-.313,1.383.067.607-.906,1.684-1.242,1.438-.275-.2-.372-.331-.5,0-.106.268.208.329.39.431.025.35-.074.738.434.881.372.1.471.412.153.657-.667.513-.6,1.2-.55,1.9a1.8,1.8,0,0,1-.67,1.915,2.967,2.967,0,0,0-.959,1.35,29.676,29.676,0,0,0-1.49,6.892c-.095,1.271-1.035,2.713.635,3.689l.071.04v0l.016.007.009,0h0l-.031-.03c1.436.177,2.71.62,4.294-.207a39.4,39.4,0,0,1,8.911-3.325c-.743,1.068-.667,1.607.155,2.449a1.048,1.048,0,0,0,.908.137,9.946,9.946,0,0,0-2.191,1.65,20.843,20.843,0,0,1-4.559,4.042c-.372.236-.913.473-.914,1.023,0,.533-.308.6-.7.643a1.916,1.916,0,0,0-1.884,2.013c-.215.5-.294.963.37,1.192,1.608.469,3.282.261,4.915.48.242.094.284-.184.446-.24.38-.307.108-.967.643-1.191a1.1,1.1,0,0,0,.188-.117l1,.432.359-.088a2.573,2.573,0,0,0,1.578.375,19.109,19.109,0,0,1,4.375.26c1.215.229,2.439.409,3.659.611.707.424.84.4.919-.184l.241-.337.612-.181-.106-.148a.315.315,0,0,1,.106.148c.865.49.6-.53.956-.716a8.455,8.455,0,0,0,1.431-1.477c1.023-1.749,2.662-1.948,4.413-1.928.738.009,1.481.145,2.1-.435.254-.238.61-.2.931-.239.941-.107,1.433.9,2.317.936a.2.2,0,0,0,.178.05l.061.078.092.037c.092.349.428.438.668.632.318-.074.3-.278.2-.511a.716.716,0,0,0-.057-.063l.139-.251h0c.08.137.159.274.238.411l-.184.326a.2.2,0,0,0-.133.233c.411.092.117.852.721.759.1.375.436.495.729.658l.187.139c.208.415.592.8.985.7a.292.292,0,0,0,.126-.072c.081.118.162.236.249.35.075.541.655.441.927.732a.407.407,0,0,0,.008.455c-.113.091-.071.179.006.264l.076.732c-.086.2-.352.353-.169.626-.059.347-.15.7.174.977.739.452,1.1,1.365,2,1.626l.482.91c.151.071.26.064.269-.139q-.145-.328-.29-.654l-.218-.18-.019,0,0,0a.631.631,0,0,0,.086-.209c.3-.074.707.084.843-.374l-.115-.574a3.174,3.174,0,0,0,0-.513c.08.22.223.373.622.254l.182-.078a2.461,2.461,0,0,0,.425.633,22.64,22.64,0,0,1,1.227,3.074c.361-.726-.495-1.272-.056-1.881l.315.228.2.053c.331.087.447-.536.837-.252l.081-.511a.368.368,0,0,0-.168-.109q-.252-1-.5-2l.152-.147c.132.153.248.53.427.031l-.248-.577a.468.468,0,0,0,.041-.038.167.167,0,0,0-.054-.232c-.1-.533-.5-1.064-.2-1.607a3.9,3.9,0,0,0,.316-2.387c0-.114.032-.232.042-.347a3.156,3.156,0,0,1,.2.287c.248.474.006,1.127.541,1.5a3.056,3.056,0,0,0,.31,1.818,2.451,2.451,0,0,0-.3-1.822c.363-.613-.128-1.178-.106-1.771a1.5,1.5,0,0,0-.024-.381c.09.12.2.229.283.351a8.682,8.682,0,0,1,1.114,2.9c.165,2.135.849,4.165,1.181,6.265a1.271,1.271,0,0,0,.7,1.136c-.174.457.061.632.473.685.245-.44-.329-.552-.354-.884a13.6,13.6,0,0,0-.655-2.487c.258-.2.414.053.609.136a.931.931,0,0,0-.066-.141.3.3,0,0,1,.066.141c.121.467.22.942.369,1.4.118.36.3.431.467.01-.325-.7-.157-1.514-.521-2.2.34-.256.154-.575.027-.807-.94-1.731-.732-3.71-1.056-5.546-.365-2.071-.6-4.214-.774-6.335a18.346,18.346,0,0,1-.288-1.954,9.951,9.951,0,0,1,1.933.049c.433.12.846.518,1.32.1l.079.061.1-.014c.907.8,1.942.355,2.936.3a.653.653,0,0,0,.926.113c.159.631.627.161.935.261a.6.6,0,0,0,.617-.106l.484-.008c.484.2.9.877,1.5.2.037-.126-.069-.22-.072-.337l.037-.04c-.407-.087-.756-.613-1.232-.159L185.21,155a.487.487,0,0,0-.622.058.44.44,0,0,0-.6-.168.726.726,0,0,0-.079-.164l.539-.258c-.02-.051-.04-.1-.059-.153a.433.433,0,0,0-.595-.014l-.25.13a1.052,1.052,0,0,0-.095-.048,6.2,6.2,0,0,0-1.383-.19.729.729,0,0,0,.006-.261c.335-.015.688.089.988-.157a.314.314,0,0,1-.187-.241l.186.24.486.113c.088-.549.452-.727.96-.71l.308-.047.363.179c-.01-.236-.058-.485.21-.628l.082.058.1.035.35.183.085.069.1.05c.229-.257.664-.111.857-.437.059.012.117.026.175.042a.916.916,0,0,0,.128-.126c.316.2.664.026.992.085-.016-.109-.033-.217-.049-.325-.324-.246-.59.123-.894.087l.057-.04c-.148-.438-.45-.512-.849-.361a.372.372,0,0,0-.052.053l-.249-.381-.345-.249a.342.342,0,0,0-.287.268l-.124-.219s.008-.008.011-.012a.392.392,0,0,0,.008-.291c-.2-.132-.441-.227-.434-.528a.68.68,0,0,1-.165-.116l-.106.019a.142.142,0,0,0,0-.052.31.31,0,0,1,.109.033q.021-.236.044-.473c.257.1.4-.086.571-.221a.714.714,0,0,0,.945-.165.687.687,0,0,0-.867.089c-.45-.049-.935.016-1.267-.4.093-.225.09-.347.037-.416a3.744,3.744,0,0,1,1.929-.275.937.937,0,0,0,.658.019.683.683,0,0,0,.288.175l.05-.087c.038.067.035.139-.058.222.043.021.085.045.128.07l-.452.337c.023.36.27.368.538.345l.235-.332a1.051,1.051,0,0,0,.982.037c.429.122.719-.169,1.044-.352-.024-.088-.048-.176-.073-.264-.374-.212-.666-.229-.748.24a.961.961,0,0,0-.6-.211.567.567,0,0,1-.169-.339,2.95,2.95,0,0,0,2.2-.441,2.94,2.94,0,0,1,.513-.345h0c.242-.029.522.063.813-.284a1.046,1.046,0,0,1-.271.009,3.7,3.7,0,0,0,.822-.505l-.011,0,.011,0h0a4.258,4.258,0,0,0,2.25-1.027l-.017,0,.017,0h0a3.076,3.076,0,0,0,1.218-.437l-.02,0a1.771,1.771,0,0,0,.941-.411l-.014,0,.016,0,0,0a2.742,2.742,0,0,0,.962-.32.424.424,0,0,0,.373-.229l.554-.14a1.183,1.183,0,0,0,.814-.934l-.059-.007c.33-.119.472-.3.188-.606a1.256,1.256,0,0,1-.365-.038,2.086,2.086,0,0,0-.489-.061.2.2,0,0,0,.043-.071c.006.006.009.013.015.019a.286.286,0,0,0,.266,0c.183-.2.226-.507.491-.644l.016-.062.048-.042c-.537-.48-.634.164-.907.356l-1.38.359a.254.254,0,0,0-.168.217c0,.027.009.052.015.078a.371.371,0,0,1-.33.122l-.317-.226a3.206,3.206,0,0,0,.728-.523c.08-.173.41-.172.322-.463.091-.21.284-.231.462-.277.026.023.047.046.078.07a2.173,2.173,0,0,0,1.865-.691l.679-.318c.288-.188.641-.227.931-.411l.648-.293a4.319,4.319,0,0,0,1.692-.881l0,0c.5-.554,1.324-.609,1.827-1.164a.762.762,0,0,0,.093-.168l.352-.162.3-.48c.1-.229-.041-.32-.225-.385.116-.351.632-.352.675-.768l.417-.695.417-.225.014-.1.06-.08a2.048,2.048,0,0,0-.075-.743c-.131-.153,0-.293.022-.438.12-.223.239-.446.358-.669l-.553-.152c-.269-.311.019-.446.2-.617l.428-.042q.214-.316.426-.633a.214.214,0,0,0,.165.062l1.019-.533c-.154-.57-.773-.28-1.074-.58l.018-.045c-.264-.033-.507-.017-.614.3l-.317-.2a1.042,1.042,0,0,1,.65-.548c.352-.11.562-.32.366-.721.439-.245.518-.761.824-1.105l-.556.134c-.141.1-.31.15-.444.259l-.188-.125a.517.517,0,0,0,.063-.053,1.311,1.311,0,0,0,.19-.54l.023-.093.05-.082a.888.888,0,0,0-1.031.255c-.291.406.5.184.381.545a.331.331,0,0,0,.082.026.238.238,0,0,1-.082-.026.182.182,0,0,0-.123.082c-.213-.03-.463.217-.639-.087-.032-.1-.064-.2-.095-.3.011-.1.021-.193.032-.29h.013a9.036,9.036,0,0,0,2.575-1.671c.3.017.357-.26.513-.418.325-.181.319-.644.679-.793.274.009.351-.236.5-.386a.541.541,0,0,0,.251-.356c-.01-.023-.019-.041-.029-.062l.763-.522a.453.453,0,0,0,.041.032c.664-.017.916-.678,1.438-.917.284.01.359-.239.5-.4.238-.21.458-.428.365-.791a.457.457,0,0,0-.076-.069l.015-.023a.529.529,0,0,0,.475-.084c.219-.375.668-.547.831-.986C216.215,119.906,215.859,120.081,215.615,120.093Zm-8.731,2.334,0,.016C206.859,122.426,206.871,122.429,206.885,122.427ZM184.917,125.2l-.058.034C184.849,125.214,184.857,125.2,184.917,125.2Zm3.519,18.836a.512.512,0,0,0-.059-.016c0-.032,0-.062.006-.092C188.4,143.964,188.414,144,188.436,144.036Zm-53.738-.482.009-.013,0-.005h0l0,.006-.009.014ZM186.051,122.2v.005h0a.034.034,0,0,1,0-.008h0a.069.069,0,0,0,0-.008h0s0,0,0,.007Zm-40.167,26.722a.535.535,0,0,1,.269.019,1,1,0,0,0,.258,0,.745.745,0,0,0,.233-.124c.1-.085.2-.174.3-.265a4.118,4.118,0,0,1,1.261-.4c1.011-.168,1.867-.81,2.856-1.048a23.5,23.5,0,0,1-3.086,1.313c-.329.134-.656.27-.974.429-.232.105-.453.234-.692.323a9.265,9.265,0,0,0-.931.39c-.024.011-.049.018-.073.029C145.495,149.376,145.689,149.151,145.884,148.926Zm28.51,10.551h0l0-.01.007.005,0,0ZM139.4,130.336h0v0h0ZM131.075,146c0,.005,0,.011-.005.016s0-.012,0-.018Zm72.876-30.535-.008-.007.011-.019A.093.093,0,0,1,203.951,115.463Zm-.009-.006ZM137.076,150.6a1.93,1.93,0,0,1-.365-.034A.629.629,0,0,1,137.076,150.6Zm34.911,13.749,0-.007s0,.009,0,.013l-.006,0Zm33.211-30.5c0-.005,0-.011,0-.016l.014.008Zm-13.631-12.6v0a.3.3,0,0,0-.03.009l-.006-.01Zm-14.407,2.377c0,.017,0,.028,0,.043l-1.124.026c.042.328.085.656.127.984-.1.533-.868.125-.95.679a.736.736,0,0,1-.268.051l-.55.94c-.017,0-.034,0-.05,0a3.566,3.566,0,0,0-.6.153.422.422,0,0,0,.1-.037c.221-.427.678-.795.557-1.307a2.1,2.1,0,0,0,.28-.192c.528-.415.654-1.237,1.419-1.407.1-.046.2-.1.291-.151.089-.021.179-.041.269-.055C176.853,123.4,177.2,123.257,177.161,123.632Zm-6.975-18.81v0h0Zm-11.512,7.167h0Zm-21.56,17.381h0l0,0h0l-.009,0,.009-.012Zm34.3,37.922-.006.006h0Zm-.006.006c.014.007.024.009.037.015l-.032.03C171.412,167.328,171.41,167.314,171.408,167.3Zm6.312-15.112a.6.6,0,0,1-.032.1c-.018-.067-.051-.1-.1-.092l.019-.013a.555.555,0,0,0,0-.131c.267-.032.537.046.8,0a.2.2,0,0,0,.017.085C178.191,152.091,177.952,152.006,177.72,152.186Zm5.828-1.089-.07-.036.018-.033.041.017Zm-1.441-2.039,0,.04-.752-.538-.346.609c-.28.26-.542-.3-.823-.019a.508.508,0,0,1-.173-.085l-.741.311a.417.417,0,0,1-.147-.052l-.508.167a1.218,1.218,0,0,1,.475-.165l.594-.41c.02.011.04.023.062.032a.54.54,0,0,0,.548-.087l.107-.174c.022,0,.044,0,.066,0a.361.361,0,0,0,.268-.167c.026-.009.053-.015.08-.023.119.118.26.014.395-.022.03,0,.06,0,.088-.008a.739.739,0,0,1,.147.046,1.422,1.422,0,0,0,.8-.022l.056.06a1.172,1.172,0,0,0,.337.427,1.468,1.468,0,0,0,.2.2C182.591,149.165,182.352,149.077,182.107,149.058Zm-5.188-26.1a1.357,1.357,0,0,0,.1-.14.831.831,0,0,0,.092.067ZM167.88,107.5s0-.009,0-.014,0,.008,0,.012Zm-6.416,2.64h0l0,0Zm-3.2,6.311c-.009.07-.014.139-.022.208a2.973,2.973,0,0,0-.4.058c-.14-.034-.28-.06-.42-.083a1.282,1.282,0,0,1,.067-.121c.433.271.47-.2.671-.359l-.027-.112a.414.414,0,0,1,.066-.058c.008-.013.013-.027.02-.041A1.484,1.484,0,0,1,158.263,116.449Zm-5.654-3.623v.013l-.009-.006ZM138.38,121.5h0Zm40.553,31.039,0-.019.01.006S178.936,152.538,178.934,152.542Zm-27.416-38.426c.185.348.335.733.815.767a.885.885,0,0,0,.43-.241.63.63,0,0,0,.081.471q.016.238.032.476l-.356.467c-.214.015-.274.181-.358.325l-.48-.006-.008,0v-.006c-.066-.758-.181-1.512-.285-2.266a4.762,4.762,0,0,0-.086-.622A4.074,4.074,0,0,0,151.518,114.117Zm-12.051,5.359a1.1,1.1,0,0,0,.107-.033l-.017.035a1.387,1.387,0,0,0,.29.239.9.9,0,0,0-.377.086,2.2,2.2,0,0,0-.139-.407A.411.411,0,0,0,139.467,119.476Zm27.25,40.258a4.029,4.029,0,0,1-.188-1.027,1.639,1.639,0,0,0-.063-.255,3.134,3.134,0,0,1-.171-1.213.405.405,0,0,0,.224-.125h0l.441,1.428.723,2.32c-.044.239.168.464.155.7-.454.022-.288.439-.332.722a1,1,0,0,0,.122.053,17.466,17.466,0,0,0,.724,2.2,7.636,7.636,0,0,0,.776,2.595l-.083.151c-.363-.6-.317-1.464-1.052-1.836.016-.023.034-.045.048-.069a1.735,1.735,0,0,0-.052-1.183A43.054,43.054,0,0,0,166.717,159.734Zm11.11,9.811.01.011-.012,0Zm3.95-16.18,0,0a.66.66,0,0,0-.41-.154.331.331,0,0,0-.275.3l-.021.036a.5.5,0,0,0-.248-.184.521.521,0,0,0-.312.057,1.576,1.576,0,0,0-.33.292c-.07-.163-.3-.276-.179-.5l.15-.347-.466-.307-.157-.189.19-.392,1.622-.014c-.17.577-.054.889.627.671.2.1.345.236.282.489a1.757,1.757,0,0,1-.143.121A.261.261,0,0,0,181.777,153.364Zm4.61-1.1.005-.008-.022,0h0c.009-.005.015-.013.023-.019,0,.011,0,.023,0,.035ZM206.365,135.6c.042-.043.081-.085.116-.127a.269.269,0,0,0,.032.063Z" transform="translate(-125.797 -80.709)" fill="#ff6d00" fill-rule="evenodd"/></g><path d="M.278-6.647-12.462-42.4h-7.546L-3.8.59H4.36L20.5-42.4H13.081Z" transform="translate(28.405 79.234)" fill="#fff"/></g></svg>